<svg width="91" height="17" viewBox="0 0 91 17" fill="none" xmlns="http://www.w3.org/2000/svg">
<circle cx="2" cy="6.62695" r="2" fill="white"/>
<circle cx="10" cy="6.62695" r="2" fill="white"/>
<circle cx="10" cy="14.627" r="2" fill="white"/>
<circle cx="2" cy="14.627" r="2" fill="white"/>
<circle cx="6" cy="10.627" r="2" fill="white"/>
<path d="M20.822 16.627C19.674 16.627 18.75 16.326 18.05 15.724C17.35 15.108 17 14.275 17 13.225C17 12.147 17.42 11.3 18.26 10.684C18.89 10.222 19.793 9.87905 20.969 9.65505L24.791 8.92005C24.777 8.10805 24.56 7.48505 24.14 7.05105C23.678 6.58905 23.062 6.35805 22.292 6.35805C21.662 6.35805 21.109 6.54005 20.633 6.90405C20.171 7.25405 19.877 7.73005 19.751 8.33205H17.462C17.658 7.10005 18.211 6.14805 19.121 5.47605C20.031 4.80405 21.095 4.46805 22.313 4.46805C22.999 4.46805 23.643 4.57305 24.245 4.78305C24.861 4.97905 25.379 5.27305 25.799 5.66505C26.359 6.18305 26.709 6.79205 26.849 7.49205C27.003 8.19205 27.08 8.99705 27.08 9.90705V16.396H24.77V14.674C24.448 15.22 24.042 15.647 23.552 15.955C22.852 16.403 21.942 16.627 20.822 16.627ZM21.284 14.716C21.9 14.716 22.46 14.59 22.964 14.338C23.65 13.988 24.126 13.526 24.392 12.952C24.672 12.364 24.812 11.608 24.812 10.684L21.515 11.335C20.703 11.503 20.115 11.755 19.751 12.091C19.457 12.385 19.31 12.742 19.31 13.162C19.31 13.652 19.485 14.037 19.835 14.317C20.199 14.583 20.682 14.716 21.284 14.716Z" fill="white"/>
<path d="M29.7467 16.396V4.69905H32.0567V6.33705C32.5747 5.65105 33.0927 5.16805 33.6107 4.88805C34.1287 4.60805 34.7167 4.46805 35.3747 4.46805C37.1247 4.46805 38.3077 5.09805 38.9237 6.35805C39.1617 6.82005 39.3087 7.29605 39.3647 7.78605C39.4207 8.26205 39.4487 8.83605 39.4487 9.50805V16.396H37.1387V9.48705C37.1387 8.29705 36.9357 7.47105 36.5297 7.00905C36.1517 6.61705 35.6057 6.42105 34.8917 6.42105C34.0377 6.42105 33.3797 6.68705 32.9177 7.21905C32.6097 7.55505 32.3857 8.01005 32.2457 8.58405C32.1197 9.15805 32.0567 9.93505 32.0567 10.915V16.396H29.7467Z" fill="white"/>
<path d="M44.4644 16.396H42.1544V0.373047H44.4644V9.19305L49.1684 4.69905H52.2134L46.7534 9.80205L52.6544 16.396H49.6934L44.4644 10.432V16.396Z" fill="white"/>
<path d="M56.8395 16.396C55.9295 16.396 55.2435 16.186 54.7815 15.766C54.3195 15.346 54.0885 14.639 54.0885 13.645V0.373047H56.3985V13.078C56.3985 13.568 56.4755 13.918 56.6295 14.128C56.7835 14.338 57.0985 14.443 57.5745 14.443H58.2255V16.396H56.8395Z" fill="white"/>
<path d="M65.0631 16.627C63.9291 16.627 62.9211 16.368 62.0391 15.85C61.1571 15.318 60.4711 14.597 59.9811 13.687C59.4911 12.763 59.2461 11.734 59.2461 10.6C59.2461 9.53605 59.4631 8.53505 59.8971 7.59705C60.3451 6.65905 61.0031 5.90305 61.8711 5.32905C62.7391 4.75505 63.7821 4.46805 65.0001 4.46805C66.0361 4.46805 66.9881 4.69205 67.8561 5.14005C68.7381 5.58805 69.4451 6.26005 69.9771 7.15605C70.5091 8.03805 70.7751 9.11605 70.7751 10.39V11.02H61.5981C61.6401 11.482 61.7521 11.902 61.9341 12.28C62.2141 12.994 62.6341 13.561 63.1941 13.981C63.7541 14.401 64.3911 14.611 65.1051 14.611C65.8471 14.611 66.4841 14.422 67.0161 14.044C67.5481 13.652 67.9331 13.155 68.1711 12.553H70.5861C70.1941 13.757 69.5291 14.737 68.5911 15.493C67.6671 16.249 66.4911 16.627 65.0631 16.627ZM68.3811 9.15105C68.3251 8.71705 68.2061 8.34605 68.0241 8.03805C67.7441 7.50605 67.3381 7.10005 66.8061 6.82005C66.2881 6.52605 65.7141 6.37905 65.0841 6.37905C64.4261 6.37905 63.8451 6.52605 63.3411 6.82005C62.8371 7.10005 62.4381 7.50605 62.1441 8.03805C61.9761 8.31805 61.8431 8.68905 61.7451 9.15105H68.3811Z" fill="white"/>
<path d="M73.0592 16.396V4.69905H75.3692V6.19005C75.8452 5.57405 76.3702 5.13305 76.9442 4.86705C77.5182 4.60105 78.1832 4.46805 78.9392 4.46805H79.1702V6.73605H78.5402C77.6022 6.73605 76.8742 6.99505 76.3562 7.51305C75.6982 8.14305 75.3692 9.17905 75.3692 10.621V16.396H73.0592Z" fill="white"/>
<path d="M85.8682 16.627C84.3982 16.627 83.1662 16.277 82.1722 15.577C81.1922 14.863 80.6042 13.855 80.4082 12.553H82.7392C82.9072 13.239 83.2502 13.771 83.7682 14.149C84.3002 14.527 85.0002 14.716 85.8682 14.716C86.5822 14.716 87.1562 14.583 87.5902 14.317C88.0242 14.037 88.2412 13.645 88.2412 13.141C88.2412 12.749 88.1082 12.441 87.8422 12.217C87.5762 11.979 87.2402 11.797 86.8342 11.671C86.4282 11.545 85.8892 11.412 85.2172 11.272C84.2932 11.09 83.5442 10.901 82.9702 10.705C82.3962 10.509 81.9062 10.187 81.5002 9.73905C81.0942 9.29105 80.8912 8.67505 80.8912 7.89105C80.8912 6.78505 81.3042 5.93805 82.1302 5.35005C82.9562 4.76205 84.0062 4.46805 85.2802 4.46805C86.5962 4.46805 87.6952 4.81105 88.5772 5.49705C89.4592 6.16905 90.0052 7.10705 90.2152 8.31105H88.0522C87.8842 7.65305 87.5552 7.16305 87.0652 6.84105C86.5752 6.51905 85.9802 6.35805 85.2802 6.35805C84.6082 6.35805 84.0832 6.48405 83.7052 6.73605C83.3272 6.98805 83.1382 7.33105 83.1382 7.76505C83.1382 8.11505 83.2642 8.39505 83.5162 8.60505C83.7682 8.80105 84.0762 8.95505 84.4402 9.06705C84.8182 9.17905 85.3432 9.29805 86.0152 9.42405C86.9672 9.60605 87.7442 9.80205 88.3462 10.012C88.9482 10.208 89.4592 10.544 89.8792 11.02C90.3132 11.482 90.5302 12.126 90.5302 12.952C90.5302 14.072 90.1172 14.968 89.2912 15.64C88.4652 16.298 87.3242 16.627 85.8682 16.627Z" fill="white"/>
</svg>
