<svg width="33" height="32" viewBox="0 0 33 32" fill="none" xmlns="http://www.w3.org/2000/svg">
<rect x="0.5" width="32" height="32" rx="16" fill="#0078D7"/>
<path d="M16.5398 22.186C13.1253 22.186 11.5653 20.4466 11.5653 19.1708C11.5648 18.8664 11.6897 18.5753 11.9106 18.366C12.1315 18.1566 12.4289 18.0475 12.7328 18.0642C14.1947 18.0642 13.8123 20.2571 16.5398 20.2571C17.934 20.2571 18.7529 19.4178 18.7529 18.6293C18.7529 18.1556 18.4822 17.6141 17.5618 17.3976L14.5161 16.6294C12.0695 16.0067 11.6431 14.6463 11.6431 13.3841C11.6431 10.7649 14.039 9.81734 16.3198 9.81734C18.4213 9.81734 20.9187 10.9781 20.9187 12.5483C20.9187 13.2251 20.3536 13.5871 19.6971 13.5871C18.4484 13.5871 18.6582 11.8342 16.1472 11.8342C14.8985 11.8342 14.242 12.4197 14.242 13.2386C14.242 14.0575 15.2133 14.335 16.066 14.5211L18.313 15.0287C20.7766 15.5837 21.4331 17.0287 21.4331 18.4128C21.4331 20.5413 19.7851 22.186 16.5364 22.186H16.5398ZM25.9677 17.6818C26.0652 17.1231 26.1139 16.557 26.1132 15.9898C26.1252 13.1408 24.8733 10.4332 22.6952 8.59674C20.5171 6.7603 17.6368 5.98407 14.8309 6.47731C13.9684 5.98075 12.9902 5.72045 11.995 5.72267C9.95231 5.73515 8.0694 6.82995 7.04804 8.59906C6.02668 10.3682 6.02007 12.5462 7.03068 14.3215C6.46677 17.42 7.45457 20.5984 9.67547 22.8315C11.8964 25.0645 15.0693 26.0696 18.1709 25.5226C19.0323 26.0187 20.0093 26.279 21.0033 26.2772C23.045 26.2641 24.9268 25.1698 25.9479 23.4017C26.9691 21.6337 26.9766 19.4569 25.9677 17.6818Z" fill="white"/>
</svg>
