<svg width="61" height="60" viewBox="0 0 61 60" fill="none" xmlns="http://www.w3.org/2000/svg">
<path d="M50.6664 40.2112C49.0263 41.8513 46.3668 41.8513 44.7267 40.2112L37.4856 32.9698C35.8452 31.3297 35.8452 28.6704 37.4856 27.0302L44.7267 19.789C46.3668 18.1488 49.0263 18.1488 50.6664 19.789L57.9078 27.0302C59.5479 28.6704 59.5479 31.3297 57.9078 32.9698L50.6664 40.2112ZM17.0283 40.2112C15.3881 41.8513 12.7287 41.8513 11.0886 40.2112L3.84734 32.9698C2.20714 31.3297 2.20714 28.6704 3.84734 27.0302L11.0886 19.789C12.7287 18.1488 15.3881 18.1488 17.0283 19.789L24.2695 27.0302C25.9097 28.6704 25.9097 31.3297 24.2695 32.9698L17.0283 40.2112ZM33.8475 57.0301C32.2071 58.6705 29.5479 58.6705 27.9076 57.0301L20.6664 49.789C19.0262 48.1489 19.0262 45.4894 20.6664 43.8493L27.9076 36.6082C29.5479 34.9678 32.2071 34.9678 33.8475 36.6082L41.0886 43.8493C42.7287 45.4894 42.7287 48.1489 41.0886 49.789L33.8475 57.0301ZM33.8475 23.392C32.2071 25.0322 29.5479 25.0322 27.9076 23.392L20.6664 16.1508C19.0262 14.5106 19.0262 11.8513 20.6664 10.2111L27.9076 2.9699C29.5479 1.3297 32.2071 1.32969 33.8475 2.9699L41.0886 10.2111C42.7287 11.8513 42.7287 14.5106 41.0886 16.1508L33.8475 23.392Z" fill="#3D3D3D"/>
</svg>
