<svg width="61" height="60" viewBox="0 0 61 60" fill="none" xmlns="http://www.w3.org/2000/svg">
<g clip-path="url(#clip0_413_33)">
<path fill-rule="evenodd" clip-rule="evenodd" d="M30.668 0C47.2364 -7.24233e-07 60.668 13.4315 60.668 30C60.668 46.5684 47.2364 60 30.668 60C14.0994 60 0.667969 46.5684 0.667969 30C0.667968 13.4315 14.0994 7.24233e-07 30.668 0ZM30.668 0C42.1004 -4.99722e-07 51.368 9.26769 51.368 20.7C51.368 32.1324 42.1004 41.4 30.668 41.4C19.2357 41.4 9.96797 32.1324 9.96797 20.7C9.96797 9.26769 19.2357 4.99722e-07 30.668 0ZM40.268 20.7C40.268 15.3981 35.9699 11.1 30.668 11.1C25.366 11.1 21.068 15.3981 21.068 20.7C21.068 26.0019 25.366 30.3 30.668 30.3C35.9699 30.3 40.268 26.0019 40.268 20.7Z" fill="#3D3D3D"/>
</g>
<defs>
<clipPath id="clip0_413_33">
<rect width="60" height="60" fill="white" transform="translate(0.667969)"/>
</clipPath>
</defs>
</svg>
