<svg width="51" height="42" viewBox="0 0 51 42" fill="none" xmlns="http://www.w3.org/2000/svg">
<g clip-path="url(#clip0_585_2435)">
<path d="M11.3481 0.807617C8.49509 0.807617 6.38408 3.33855 6.47857 6.08336C6.56925 8.72037 6.45145 12.1356 5.60315 14.9208C4.7523 17.7141 3.31331 19.4836 0.962891 19.7108V22.2756C3.31331 22.5028 4.7523 24.2723 5.60315 27.0656C6.45145 29.8508 6.56925 33.2661 6.47857 35.9031C6.38408 38.6475 8.49509 41.1788 11.3485 41.1788H40.5815C43.4345 41.1788 45.5451 38.6479 45.4506 35.9031C45.3599 33.2661 45.4777 29.8508 46.326 27.0656C47.1773 24.2723 48.6125 22.5028 50.9629 22.2756V19.7108C48.6125 19.4836 47.1773 17.7141 46.326 14.9208C45.4777 12.136 45.3599 8.72037 45.4506 6.08336C45.5451 3.33898 43.4345 0.807617 40.5815 0.807617H11.3476H11.3481ZM34.8612 25.6587C34.8612 29.4381 32.0798 31.7302 27.4642 31.7302H19.607C19.1389 31.7302 18.7595 31.3457 18.7595 30.8713V11.1152C18.7595 10.6408 19.1389 10.2562 19.607 10.2562H27.4192C31.268 10.2562 33.7938 12.3692 33.7938 15.6135C33.7938 17.8906 32.0947 19.9294 29.9298 20.2863V20.4053C32.8769 20.733 34.8612 22.8013 34.8612 25.6587ZM26.6074 12.9791H22.1273V19.393H25.9006C28.8176 19.393 30.426 18.2024 30.426 16.0744C30.426 14.0803 29.043 12.9791 26.6074 12.9791ZM22.1273 21.9381V29.0065H26.7722C29.8091 29.0065 31.418 27.7713 31.418 25.4499C31.418 23.1282 29.7642 21.9376 26.5769 21.9376H22.1273V21.9381Z" fill="#7E13F8"/>
</g>
<defs>
<clipPath id="clip0_585_2435">
<rect width="50" height="40.3846" fill="white" transform="translate(0.962891 0.807617)"/>
</clipPath>
</defs>
</svg>
