<svg width="50" height="50" viewBox="0 0 50 50" fill="none" xmlns="http://www.w3.org/2000/svg">
<path d="M47.0875 0L43.071 44.9948L25.0167 50L7.01223 45.0018L3 0H47.0875Z" fill="#264DE4"/>
<path d="M39.6317 42.1295L43.064 3.67944H25.043V46.1741L39.6317 42.1295Z" fill="#2965F1"/>
<path d="M12.1992 20.3701L12.6939 25.8893H25.045V20.3701H12.1992Z" fill="#EBEBEB"/>
<path d="M25.0429 9.19897H25.0238H11.2031L11.7048 14.7183H25.0429V9.19897Z" fill="#EBEBEB"/>
<path d="M25.0459 40.4465V34.7042L25.0217 34.7106L18.8749 33.0508L18.4819 28.6489H15.495H12.9414L13.7147 37.315L25.0205 40.4536L25.0459 40.4465Z" fill="#EBEBEB"/>
<path d="M31.8198 25.8894L31.1792 33.0475L25.0234 34.709V40.4511L36.3383 37.3152L36.4213 36.3827L37.7183 21.8522L37.8529 20.3702L38.8493 9.19897H25.0234V14.7183H32.8007L32.2985 20.3702H25.0234V25.8894H31.8198Z" fill="white"/>
</svg>
