<svg width="49" height="48" viewBox="0 0 49 48" fill="none" xmlns="http://www.w3.org/2000/svg">
<g clip-path="url(#clip0_585_2418)">
<path fill-rule="evenodd" clip-rule="evenodd" d="M25.0102 0L2.58594 7.78385L5.7962 37.5337L25.0102 48V0Z" fill="#412846"/>
<path fill-rule="evenodd" clip-rule="evenodd" d="M24.9141 0L47.3383 7.78385L44.128 37.5337L24.9141 48V0Z" fill="#4B314F"/>
<path fill-rule="evenodd" clip-rule="evenodd" d="M36.1383 16.4251L36.1343 16.4123C37.1582 17.552 37.6841 18.9052 37.7121 20.4719C37.74 22.0387 37.2141 23.6914 36.1222 25.4251C36.9382 24.7906 37.8807 23.4213 38.9464 21.3328C39.4067 25.5653 37.6963 28.7804 33.799 30.9822C35.0433 30.8675 36.6953 30.0483 38.7442 28.5217C36.5577 33.7859 32.5374 36.5633 26.6833 36.8541C21.0256 36.8526 17.3604 33.4526 17.3633 33.4548C15.0373 31.6444 13.4369 29.3627 12.5675 26.6198C11.1763 25.1005 11.1625 24.9376 11.019 24.3306C10.8755 23.7235 11.1097 23.5539 11.5172 22.9599C11.7889 22.5638 11.8529 21.9941 11.7133 21.261C11.3669 20.7806 11.1675 20.0284 11.115 19.0042C11.115 18.5093 11.4452 17.9871 12.1059 17.4376C12.7665 16.8881 13.1719 16.4655 13.3187 16.1746C13.4307 16.0159 13.474 15.3283 13.4485 14.1116C13.4416 12.9165 14.1052 12.2663 15.4391 12.161C17.4399 12.003 18.5684 10.4983 19.197 9.81392C19.6161 9.35769 20.2363 9.13593 21.0185 9.13166C22.1199 9.08004 23.122 9.50221 23.9852 10.3734C26.1353 10.2622 28.3377 10.8421 30.5693 12.0982C33.7405 13.9821 35.4713 16.0221 35.7614 18.2081C35.4216 21.085 31.5569 21.0098 24.1848 17.9818C20.3269 19.0746 18.4302 21.4426 18.4932 25.0859C18.4906 28.4292 20.1086 30.8585 23.3363 32.3716C21.7631 30.8271 21.0932 29.529 21.3188 28.4539C24.591 32.329 28.3181 33.7774 32.4939 32.7993C30.6529 32.8636 29.1946 32.2712 28.0971 31.0133C30.9196 30.9447 33.5841 29.6344 36.0932 27.0692C34.6448 28.2218 33.1292 28.6582 31.5245 28.3837C35.8707 24.9667 37.4086 20.9805 36.1383 16.4251ZM28.25 15.8994C28.6024 15.8994 28.888 15.6138 28.888 15.2615C28.888 14.9091 28.6024 14.6235 28.25 14.6235C27.8977 14.6235 27.6121 14.9091 27.6121 15.2615C27.6121 15.6138 27.8977 15.8994 28.25 15.8994Z" fill="#BA2BD2"/>
</g>
<defs>
<clipPath id="clip0_585_2418">
<rect width="48" height="48" fill="white" transform="translate(0.962891)"/>
</clipPath>
</defs>
</svg>
