<svg width="78" height="31" viewBox="0 0 78 31" fill="none" xmlns="http://www.w3.org/2000/svg">
<path d="M27.0862 6.26278C29.8624 14.7466 30.9142 29.8811 39.033 29.8811C39.651 29.8811 40.2756 29.8205 40.9024 29.7013C33.5222 27.9818 32.6473 13.0121 28.1441 5.25989C27.7849 5.58727 27.4324 5.92163 27.0862 6.26278Z" fill="url(#paint0_linear_526_524)"/>
<path d="M28.1484 5.26004C32.6519 13.0122 33.5265 27.982 40.9067 29.7014C41.4866 29.5952 42.0676 29.4341 42.6498 29.231C36.0255 25.988 34.1945 11.4511 29.08 4.453C28.7643 4.71609 28.4537 4.98525 28.1484 5.26034" fill="url(#paint1_linear_526_524)"/>
<path d="M34.6341 0.649329C34.0174 0.649329 33.3915 0.709872 32.7635 0.829141C31.1206 1.13851 29.4521 1.84535 27.7695 2.91483C28.2291 3.368 28.6662 3.88654 29.0776 4.45262C30.7886 3.0338 32.4887 1.98551 34.1821 1.35526C34.8003 1.12415 35.4373 0.947199 36.0861 0.826416C35.6114 0.707083 35.1236 0.647592 34.6341 0.649329Z" fill="#14559A"/>
<path d="M47.8185 26.2414C48.5242 25.678 49.2039 25.0827 49.8554 24.4575C47.0345 16.013 46.0248 0.662109 37.849 0.662109C37.2644 0.662109 36.6745 0.716598 36.0859 0.825575C43.5331 2.67636 44.4871 18.8667 47.8188 26.2414" fill="url(#paint2_linear_526_524)"/>
<path d="M36.0848 0.825749C35.6101 0.706574 35.1223 0.647185 34.6328 0.648965L37.8479 0.66077C37.2632 0.66077 36.6734 0.715561 36.0848 0.825749Z" fill="#3092C4"/>
<path d="M47.6769 28.0352C47.3573 27.7307 47.0538 27.3965 46.7551 27.0399C45.3797 28.0128 44.0098 28.7509 42.6484 29.231C43.1344 29.4695 43.6489 29.6447 44.1795 29.7522C44.6089 29.8391 45.0461 29.8823 45.4843 29.8812C47.0117 29.8812 48.2198 29.7005 49.248 29.2076C48.6818 28.9019 48.1625 28.5054 47.6769 28.0352Z" fill="#1969BC"/>
<path d="M34.1836 1.35652C40.8537 4.84257 41.4335 20.6297 46.7559 27.0399C47.1181 26.7842 47.4727 26.5179 47.8192 26.2414C44.4875 18.8667 43.5347 2.67514 36.0891 0.825562C35.4399 0.947674 34.8024 1.12531 34.1836 1.35652Z" fill="url(#paint3_linear_526_524)"/>
<path d="M29.0781 4.4529C34.1923 11.451 36.0236 25.9876 42.648 29.2309C44.0097 28.7508 45.3799 28.0128 46.7549 27.0398C41.4326 20.6296 40.8528 4.84249 34.1827 1.35645C32.4892 1.98548 30.7891 3.03378 29.0781 4.4526" fill="url(#paint4_linear_526_524)"/>
<path d="M23.8175 6.05861C23.0159 7.86974 22.197 10.2503 21.207 13.3576C23.1758 10.586 25.1383 8.19758 27.0898 6.26325C26.8211 5.43744 26.5324 4.67612 26.2213 3.99744C25.3835 4.64081 24.5812 5.32897 23.8178 6.05891" fill="url(#paint5_linear_526_524)"/>
<path d="M26.9288 3.47498C26.6893 3.6453 26.4526 3.81949 26.2188 3.99746C26.5299 4.67584 26.8174 5.43716 27.0861 6.26296C27.4327 5.92245 27.7854 5.5881 28.1439 5.26008C27.7662 4.61136 27.3648 4.01229 26.9288 3.47498Z" fill="#2B74B1"/>
<path d="M27.7694 2.91522C27.4855 3.09556 27.2055 3.28207 26.9297 3.47463C27.3659 4.01195 27.7673 4.61102 28.1463 5.26094C28.451 4.98481 28.7617 4.71533 29.0781 4.4527C28.6667 3.88693 28.2293 3.36808 27.7694 2.91492" fill="#125A9E"/>
<path d="M73.2683 0.00332985C69.4958 14.5411 61.6163 26.2177 55.0101 29.1616H54.998C54.8777 29.2161 54.7587 29.2657 54.6411 29.3138C54.6248 29.3238 54.6099 29.325 54.5975 29.3308C54.563 29.3447 54.5309 29.3556 54.496 29.3695C54.4797 29.3792 54.4651 29.3826 54.4503 29.3883C54.3945 29.4083 54.34 29.4249 54.2855 29.4467C54.2618 29.4567 54.2397 29.4628 54.2173 29.4706C54.1905 29.4809 54.1632 29.4898 54.1355 29.4973C54.1107 29.507 54.0846 29.5142 54.0562 29.5251C54.0325 29.5348 54.0077 29.5391 53.9856 29.5487C53.9371 29.5627 53.8929 29.5745 53.8444 29.5911C53.8244 29.5911 53.8059 29.602 53.785 29.6075C53.755 29.6172 53.7214 29.6241 53.6893 29.6332C53.6672 29.6429 53.6487 29.6462 53.6251 29.6511C53.5917 29.6608 53.5545 29.6698 53.5209 29.6777L53.3945 29.7056C53.6971 29.817 54.0172 29.8732 54.3397 29.8714C60.6039 29.8714 66.9196 18.6541 77.3701 0H73.2667L73.2683 0.00332985Z" fill="url(#paint6_linear_526_524)"/>
<path d="M19.8456 1.23923C19.8495 1.23923 19.8547 1.22954 19.8568 1.22954C19.8619 1.22954 19.8695 1.22954 19.8719 1.21986H19.8798C19.9143 1.20775 19.9464 1.19413 19.9813 1.18111C19.9904 1.18111 19.9949 1.18111 20.0013 1.17142C20.0101 1.17142 20.0185 1.16143 20.0273 1.16022C20.0643 1.14842 20.1015 1.13449 20.1364 1.12178H20.1421C20.2251 1.09696 20.3021 1.06608 20.3824 1.03732C20.3939 1.03732 20.4048 1.02763 20.4184 1.02763C20.4517 1.01674 20.4866 1.00493 20.5214 0.99706C20.5375 0.987071 20.5535 0.987071 20.5684 0.981925C20.6041 0.97133 20.639 0.959221 20.6723 0.951351C20.6874 0.951351 20.7008 0.941361 20.712 0.940453C20.8271 0.908668 20.9413 0.879002 21.0564 0.851455C21.0725 0.851455 21.0861 0.841466 21.1034 0.840557C21.1367 0.830871 21.1679 0.825422 21.2039 0.820578C21.2188 0.810892 21.2361 0.810892 21.2533 0.805745C21.2866 0.796059 21.3191 0.794848 21.3551 0.786977H21.3784C21.4481 0.77275 21.5187 0.761247 21.5881 0.74823H21.6302C21.6635 0.738543 21.6932 0.737332 21.7268 0.731278C21.745 0.731278 21.7638 0.721591 21.7813 0.721591C21.8122 0.721591 21.8431 0.711602 21.874 0.707666C21.8904 0.707666 21.9062 0.707666 21.9249 0.697677C21.9979 0.68799 22.0734 0.684055 22.1503 0.678C21.9289 0.655753 21.7064 0.644135 21.4839 0.643188C14.4296 0.643188 4.71011 13.7225 0.332031 30.6605H1.17572C2.57681 28.1638 3.83552 25.8017 4.98669 23.5843C8.05274 11.5869 14.2981 3.40514 19.8459 1.23741" fill="url(#paint7_linear_526_524)"/>
<path d="M23.8164 6.05847C24.5798 5.3285 25.3821 4.64034 26.2199 3.99699C26.0495 3.61829 25.8583 3.24923 25.6474 2.89148C25.0021 3.67399 24.4123 4.70655 23.8164 6.05847Z" fill="#0D82CA"/>
<path d="M24.3941 1.33868C24.8548 1.72494 25.2674 2.2559 25.6452 2.89251C25.7642 2.7463 25.8845 2.61128 26.0096 2.48505C25.4855 1.99617 24.919 1.59508 24.3047 1.29297C24.3295 1.30659 24.3544 1.31779 24.3801 1.32869C24.3801 1.32869 24.3898 1.33868 24.3941 1.33868Z" fill="#0D82CA"/>
<path d="M4.98438 23.586C11.417 11.1999 14.4646 3.36079 19.8439 1.23877C14.2973 3.40801 8.05073 11.5897 4.98468 23.586" fill="url(#paint8_linear_526_524)"/>
<path d="M26.0126 2.48474C25.8875 2.61218 25.7687 2.74598 25.6484 2.89219C25.8595 3.24997 26.0511 3.61891 26.2222 3.9974C26.456 3.81953 26.6926 3.64545 26.932 3.47522C26.649 3.124 26.3418 2.79303 26.0126 2.48474Z" fill="#127BCA"/>
<path d="M7.90623 30.6064C7.86654 30.6164 7.82686 30.6164 7.7896 30.6203H7.76748C7.73386 30.6203 7.69902 30.6303 7.66812 30.6303H7.65206C7.57148 30.64 7.49211 30.64 7.41547 30.6461H7.39062C13.9011 30.4641 16.8769 27.2069 18.354 22.4828C19.4764 18.9014 20.3979 15.8843 21.2059 13.3527C18.4788 17.188 15.7396 21.7599 12.9856 26.8815C11.6575 29.3498 9.63813 30.3809 7.90592 30.6019" fill="url(#paint9_linear_526_524)"/>
<path d="M7.90655 30.604C9.63846 30.3836 11.6578 29.3538 12.9859 26.8837C15.74 21.7636 18.4806 17.1905 21.2047 13.3551C22.1959 10.2462 23.0138 7.86692 23.8166 6.05579C18.3864 11.2207 12.935 19.8087 7.90625 30.6016" fill="url(#paint10_linear_526_524)"/>
<path d="M4.98676 23.5863C3.83559 25.8034 2.57688 28.1654 1.17578 30.6625H3.62989C3.93982 28.2791 4.39292 25.9165 4.98676 23.5875" fill="#05A1E6"/>
<path d="M21.9216 0.704223C21.9016 0.704223 21.8867 0.71391 21.8695 0.71391C21.8398 0.723899 21.8089 0.723899 21.7777 0.726927C21.7595 0.726927 21.7419 0.726927 21.7231 0.736916C21.6898 0.746603 21.6589 0.747511 21.6265 0.753868C21.6117 0.753868 21.5968 0.753868 21.5844 0.763555C21.5138 0.775361 21.4444 0.788377 21.3754 0.800183H21.3517C21.3157 0.810173 21.2833 0.815319 21.2499 0.820162C21.2327 0.829849 21.2154 0.829849 21.199 0.833784C21.1657 0.843774 21.1324 0.847709 21.1 0.853763C21.0827 0.86345 21.0691 0.86345 21.053 0.864358C20.9379 0.892208 20.8237 0.921874 20.7086 0.953659C20.6965 0.953659 20.6837 0.963346 20.6689 0.965465C20.6344 0.975151 20.6007 0.985141 20.5647 0.996039C20.5498 1.00603 20.5326 1.00603 20.5177 1.00996C20.4832 1.01951 20.4489 1.0297 20.4147 1.04054C20.4014 1.04054 20.3902 1.05022 20.3778 1.05022C20.2984 1.07989 20.2203 1.10986 20.1385 1.13438C20.1039 1.14528 20.0667 1.1592 20.0294 1.17222C20.0146 1.1819 20.0012 1.18433 19.984 1.19099C19.9491 1.20188 19.9143 1.21581 19.8822 1.22852C19.8701 1.23851 19.8573 1.23942 19.8488 1.24457C14.4696 3.36659 11.4217 11.2053 4.98937 23.5915C4.39502 25.9205 3.942 28.2832 3.63281 30.6668H3.97725C4.94727 30.6668 5.22112 30.6568 6.33715 30.6568H7.41895C7.49559 30.6471 7.57496 30.6471 7.65524 30.6407H7.67039C7.70371 30.6407 7.73703 30.6311 7.76945 30.6311H7.79308C7.82882 30.6311 7.86972 30.6214 7.90941 30.6171C12.9382 19.8242 18.3893 11.2362 23.8198 6.07133C24.4166 4.71971 25.0052 3.68716 25.6495 2.90586C25.2727 2.26955 24.8601 1.73738 24.3993 1.35112C23.9385 0.964859 24.3869 1.35112 24.386 1.34113C24.3596 1.33054 24.3351 1.31752 24.309 1.30481C24.283 1.29058 24.2606 1.27968 24.2333 1.26606C24.208 1.2554 24.1832 1.24348 24.1591 1.23034C24.127 1.22035 24.1009 1.20642 24.0724 1.19371C24.0488 1.18372 24.0279 1.17373 24.0043 1.16404C23.9563 1.14543 23.9088 1.12555 23.8619 1.10441C23.8407 1.09472 23.821 1.08927 23.8013 1.08171C23.7653 1.0686 23.7296 1.05446 23.6944 1.03933C23.6771 1.02934 23.6574 1.02722 23.6374 1.02026C23.5868 1.0033 23.5371 0.985444 23.4902 0.969703H23.4778C23.4208 0.950934 23.3651 0.93701 23.3069 0.921268C23.2933 0.911279 23.2821 0.911279 23.2684 0.90916C23.2175 0.895538 23.173 0.881916 23.1248 0.868899C23.1127 0.868899 23.1012 0.85891 23.0915 0.85891C22.973 0.82858 22.8535 0.80253 22.7331 0.78081C22.721 0.78081 22.7086 0.77082 22.6962 0.77082C22.6449 0.760637 22.5933 0.752357 22.5414 0.745997C22.5286 0.736311 22.5214 0.736311 22.5105 0.736311C22.4495 0.726968 22.3883 0.718995 22.3269 0.712396H22.2948C22.2451 0.702709 22.1994 0.701801 22.1536 0.696655C22.0755 0.706342 22.0012 0.71058 21.9279 0.717542" fill="url(#paint11_linear_526_524)"/>
<path d="M58.534 8.05171C57.2965 12.0133 56.294 15.2814 55.4219 17.9704C58.8178 13.3008 62.1629 7.4263 65.3483 0.647339C61.6327 1.81339 59.6503 4.48272 58.534 8.05171Z" fill="url(#paint12_linear_526_524)"/>
<path d="M55.5258 28.914C55.3526 29.0024 55.179 29.0863 55.0078 29.1617C61.614 26.2178 69.4935 14.5412 73.266 0.00341797H72.5013C63.8342 15.4745 61.0466 25.8315 55.5258 28.914Z" fill="url(#paint13_linear_526_524)"/>
<path d="M51.2118 27.6144C52.6489 25.8613 53.8198 22.8814 55.4181 17.9702C53.5744 20.5009 51.7186 22.6759 49.8613 24.4501C49.8613 24.4598 49.8613 24.4598 49.8516 24.4658C50.2569 25.6791 50.7016 26.7498 51.2081 27.6141" fill="#079AE1"/>
<path d="M51.2134 27.6144C50.7241 28.2107 50.2061 28.6654 49.6302 29.002C49.5036 29.0753 49.3761 29.1443 49.2461 29.2079C49.8712 29.5461 50.5553 29.7616 51.2615 29.8427C51.3706 29.8535 51.4785 29.8635 51.5912 29.8714H51.6111C51.6617 29.8714 51.7154 29.8714 51.7699 29.8811H52.3073C52.327 29.8811 52.3476 29.8811 52.3676 29.8714C52.4061 29.8714 52.447 29.8714 52.4863 29.8614H52.5451C52.5857 29.8614 52.6302 29.8517 52.6739 29.8475H52.6839C52.6966 29.8475 52.7105 29.8378 52.7232 29.8378C52.7687 29.8278 52.8165 29.8239 52.8611 29.8169H52.9017C52.952 29.8072 53.0044 29.8009 53.0562 29.7912H53.0813C53.1852 29.7712 53.2867 29.7518 53.3897 29.7258C52.5372 29.414 51.8235 28.6784 51.2091 27.631" fill="#1969BC"/>
<path d="M39.0352 29.881C39.6535 29.881 40.2778 29.8205 40.9049 29.7003C41.4847 29.5952 42.0658 29.4339 42.648 29.2311C43.1336 29.4694 43.6477 29.6446 44.1779 29.7524C44.6077 29.8391 45.0453 29.8822 45.4838 29.881H39.0352Z" fill="#1E5CB3"/>
<path d="M45.4847 29.8811C47.0112 29.8811 48.2203 29.7003 49.2472 29.2075C49.8724 29.546 50.5566 29.7617 51.263 29.8429C51.372 29.8535 51.4799 29.8635 51.5926 29.8714H51.6126C51.6632 29.8714 51.7168 29.8714 51.7713 29.8814H51.9564H45.4805L45.4847 29.8811Z" fill="#1E5CB3"/>
<path d="M51.9609 29.8812H52.3142C52.3354 29.8812 52.3548 29.8812 52.3748 29.8715C52.4132 29.8715 52.4541 29.8715 52.495 29.8615H52.5535C52.5941 29.8615 52.6386 29.8518 52.681 29.8479H52.6919C52.705 29.8479 52.7177 29.8382 52.7307 29.8382C52.7761 29.8282 52.8237 29.8243 52.8682 29.817C52.8831 29.817 52.8949 29.817 52.9107 29.8073C52.9612 29.7976 53.0136 29.7925 53.0658 29.7828H53.0906C53.1945 29.7628 53.296 29.7431 53.399 29.7174C53.7016 29.8288 54.0217 29.885 54.3442 29.8833L51.9631 29.893L51.9609 29.8812Z" fill="#1D60B5"/>
<path d="M49.8587 24.4662V24.4562C49.2073 25.0814 48.5277 25.6767 47.822 26.2401C47.4749 26.5163 47.1201 26.7826 46.7578 27.0386C47.0562 27.3952 47.3601 27.7294 47.6797 28.0342C48.1653 28.5044 48.6842 28.9006 49.2504 29.2064C49.3794 29.1428 49.5082 29.0738 49.6333 29.0008C50.2107 28.6642 50.7284 28.2098 51.2177 27.6132C50.7112 26.7489 50.2665 25.6782 49.8611 24.465" fill="#175FAB"/>
<path d="M70.0838 0.00341797H66.2361C66.0283 0.0134075 65.8262 0.0203699 65.6269 0.0330839C65.5327 0.234994 65.4361 0.436903 65.3431 0.640024C62.158 7.41898 58.8129 13.2934 55.4169 17.9631C53.8199 22.874 52.6481 25.8539 51.2109 27.6069C51.8253 28.6543 52.5402 29.3908 53.39 29.7029C53.4148 29.6929 53.4348 29.6929 53.4569 29.6878H53.4709C53.4857 29.6878 53.5018 29.6781 53.5178 29.6781C53.5524 29.6681 53.5896 29.6621 53.6245 29.6515C53.6466 29.6415 53.665 29.6406 53.6875 29.6333C53.7199 29.6236 53.7532 29.6166 53.7829 29.6088C53.8029 29.5988 53.8226 29.5958 53.8423 29.5918C53.892 29.5758 53.9365 29.564 53.9837 29.5491C54.0059 29.5395 54.0295 29.531 54.0543 29.5252C54.0816 29.5155 54.1089 29.5086 54.1337 29.4968C54.1622 29.4868 54.1906 29.4816 54.2155 29.471C54.2376 29.4611 54.2609 29.455 54.2821 29.4462C54.3379 29.4262 54.3924 29.4096 54.4481 29.3878C54.4633 29.3878 54.4781 29.3739 54.4942 29.3708C54.5275 29.3569 54.5624 29.346 54.5957 29.3312C54.6078 29.3212 54.6229 29.3203 54.639 29.3151C54.7556 29.2667 54.8756 29.2171 54.9959 29.1629H55.0083C55.1829 29.0852 55.3552 29.0027 55.5251 28.9153C61.0468 25.8327 63.8347 15.4757 72.5018 0.00462882H70.081L70.0838 0.00341797Z" fill="url(#paint14_linear_526_524)"/>
<path d="M22.1487 0.6831C22.1624 0.6831 22.1745 0.6831 22.1881 0.692787C22.2214 0.692787 22.2548 0.692787 22.2884 0.703685H22.3217C22.3826 0.713371 22.4435 0.71882 22.5053 0.727599C22.5165 0.727599 22.5265 0.727599 22.5362 0.737286C22.5871 0.746973 22.6392 0.755448 22.691 0.763016C22.7025 0.763016 22.7171 0.773006 22.7295 0.773006C22.8485 0.796617 22.97 0.82144 23.0863 0.852014C23.0975 0.852014 23.1088 0.862004 23.1184 0.862004C23.1681 0.873809 23.2127 0.888642 23.2623 0.902567C23.2775 0.902567 23.2884 0.912254 23.3017 0.914676C23.3602 0.929509 23.4147 0.944341 23.4717 0.96311C23.4741 0.96311 23.4777 0.96311 23.4841 0.972797C23.5326 0.98763 23.5819 1.0064 23.6328 1.02335C23.6528 1.03304 23.6713 1.03727 23.6898 1.04212C23.7246 1.05725 23.7631 1.07178 23.7964 1.08571C23.8164 1.08571 23.8358 1.09963 23.857 1.1069C23.9028 1.12748 23.9509 1.14625 23.9982 1.16593C24.023 1.17592 24.0439 1.18712 24.0679 1.1959C24.0951 1.20982 24.1233 1.22254 24.153 1.23222C24.1778 1.24433 24.2051 1.25704 24.2287 1.26794C24.2548 1.28217 24.2793 1.29276 24.3045 1.30669C24.9188 1.6088 25.485 2.0111 26.0091 2.49908C26.1968 2.30162 26.3988 2.11828 26.6135 1.95056C25.4674 1.13808 24.1693 0.674927 22.6713 0.674927C22.498 0.674927 22.3244 0.684916 22.1484 0.697933" fill="#7DCBEC"/>
<path d="M26.012 2.48473C26.3413 2.79303 26.6485 3.124 26.9314 3.47521C27.2069 3.28199 27.4869 3.09526 27.7712 2.91519C27.4145 2.55638 27.0278 2.22876 26.6152 1.93591C26.4005 2.10331 26.1988 2.28667 26.0117 2.48443" fill="#5EC5ED"/>
<path d="M22.1511 0.682924C22.3268 0.668092 22.5004 0.661734 22.674 0.661734C24.1718 0.661734 25.4701 1.12489 26.6162 1.93616C27.8255 0.98261 29.2872 0.649626 31.3178 0.649626H21.4844C21.7116 0.649626 21.933 0.663248 22.1511 0.682924Z" fill="url(#paint15_linear_526_524)"/>
<path d="M31.3149 0.649655C29.2843 0.649655 27.8226 0.98264 26.6133 1.93619C27.0253 2.22926 27.4116 2.55676 27.7681 2.91516C29.4515 1.84568 31.1192 1.13733 32.7636 0.827953C33.3797 0.710862 34.0055 0.651173 34.6327 0.649655H31.3149Z" fill="url(#paint16_linear_526_524)"/>
<path d="M55.4186 17.9727C56.292 15.2815 57.292 12.0143 58.5319 8.05153C59.6497 4.48103 61.6279 1.81201 65.3435 0.647165C65.4416 0.447677 65.5343 0.242134 65.6298 0.0405273C59.5728 0.403178 56.7418 3.48207 55.3171 8.04154C52.8257 16.0017 51.3165 21.1617 49.8633 24.4498C51.7194 22.6771 53.5752 20.5006 55.4186 17.9727Z" fill="url(#paint17_linear_526_524)"/>
<path d="M64.304 27.7607H63.6175V29.8927H63.3376V27.7607H62.6484V27.507H64.3037L64.304 27.7607ZM67.1144 29.8921H66.8357V28.2901C66.8357 28.1639 66.8454 28.0092 66.8584 27.827C66.8296 27.936 66.806 28.0116 66.7842 28.0601L65.9714 29.8921H65.8351L65.0202 28.0737C64.9959 28.0231 64.9723 27.9411 64.9465 27.8273H64.9368C64.9465 27.9232 64.9499 28.0785 64.9499 28.2941V29.8924H64.6821V27.5067H65.0517L65.7836 29.1716C65.839 29.2967 65.8738 29.3932 65.8914 29.4577H65.9023C65.9508 29.3263 65.9902 29.2285 66.0174 29.1641L66.7645 27.5067H67.1162V29.8921H67.1144Z" fill="black"/>
<defs>
<linearGradient id="paint0_linear_526_524" x1="1858.4" y1="-1315.75" x2="1858.4" y2="8779.38" gradientUnits="userSpaceOnUse">
<stop stop-color="#0994DC"/>
<stop offset="0.35" stop-color="#66CEF5"/>
<stop offset="0.846" stop-color="#127BCA"/>
<stop offset="1" stop-color="#127BCA"/>
</linearGradient>
<linearGradient id="paint1_linear_526_524" x1="1950.4" y1="-1350.21" x2="1950.4" y2="9002.02" gradientUnits="userSpaceOnUse">
<stop stop-color="#0E76BC"/>
<stop offset="0.36" stop-color="#36AEE8"/>
<stop offset="0.846" stop-color="#00ADEF"/>
<stop offset="1" stop-color="#00ADEF"/>
</linearGradient>
<linearGradient id="paint2_linear_526_524" x1="1861.25" y1="7800.97" x2="1861.25" y2="-436.322" gradientUnits="userSpaceOnUse">
<stop stop-color="#1C63B7"/>
<stop offset="0.5" stop-color="#33BDF2"/>
<stop offset="1" stop-color="#33BDF2" stop-opacity="0.42"/>
</linearGradient>
<linearGradient id="paint3_linear_526_524" x1="1841.67" y1="-1405.59" x2="1841.67" y2="9342.84" gradientUnits="userSpaceOnUse">
<stop stop-color="#166AB8"/>
<stop offset="0.4" stop-color="#36AEE8"/>
<stop offset="0.846" stop-color="#0798DD"/>
<stop offset="1" stop-color="#0798DD"/>
</linearGradient>
<linearGradient id="paint4_linear_526_524" x1="2372.16" y1="-1494.58" x2="2372.16" y2="9934.98" gradientUnits="userSpaceOnUse">
<stop stop-color="#124379"/>
<stop offset="0.39" stop-color="#1487CB"/>
<stop offset="0.78" stop-color="#165197"/>
<stop offset="1" stop-color="#165197"/>
</linearGradient>
<linearGradient id="paint5_linear_526_524" x1="21.207" y1="1290.67" x2="27.0898" y2="1290.67" gradientUnits="userSpaceOnUse">
<stop stop-color="#33BDF2" stop-opacity="0.698"/>
<stop offset="1" stop-color="#1DACD8"/>
</linearGradient>
<linearGradient id="paint6_linear_526_524" x1="3232.08" y1="7775.86" x2="3232.08" y2="-248.421" gradientUnits="userSpaceOnUse">
<stop stop-color="#136AB4"/>
<stop offset="0.6" stop-color="#59CAF5" stop-opacity="0.549"/>
<stop offset="1" stop-color="#59CAF5" stop-opacity="0.235"/>
</linearGradient>
<linearGradient id="paint7_linear_526_524" x1="0.274189" y1="4126.82" x2="5784.47" y2="4126.82" gradientUnits="userSpaceOnUse">
<stop stop-color="#05A1E6" stop-opacity="0.247"/>
<stop offset="1" stop-color="#05A1E6"/>
</linearGradient>
<linearGradient id="paint8_linear_526_524" x1="1974.59" y1="7638.7" x2="1974.59" y2="-577.558" gradientUnits="userSpaceOnUse">
<stop stop-color="#318ED5"/>
<stop offset="1" stop-color="#38A7E4"/>
</linearGradient>
<linearGradient id="paint9_linear_526_524" x1="1838.62" y1="4349.27" x2="1838.62" y2="-3637.23" gradientUnits="userSpaceOnUse">
<stop stop-color="#05A1E6"/>
<stop offset="1" stop-color="#05A1E6" stop-opacity="0.549"/>
</linearGradient>
<linearGradient id="paint10_linear_526_524" x1="2116.89" y1="6755.52" x2="2116.89" y2="6.73078" gradientUnits="userSpaceOnUse">
<stop stop-color="#1959A6"/>
<stop offset="0.5" stop-color="#05A1E6"/>
<stop offset="0.918" stop-color="#7EC5EA"/>
<stop offset="1" stop-color="#7EC5EA"/>
</linearGradient>
<linearGradient id="paint11_linear_526_524" x1="3494.28" y1="7792.51" x2="1283.04" y2="779.476" gradientUnits="userSpaceOnUse">
<stop stop-color="#165096"/>
<stop offset="1" stop-color="#0D82CA"/>
</linearGradient>
<linearGradient id="paint12_linear_526_524" x1="1371.08" y1="3667.64" x2="1371.08" y2="-156.466" gradientUnits="userSpaceOnUse">
<stop stop-color="#05A1E6"/>
<stop offset="0.874" stop-color="#0495D6"/>
<stop offset="1" stop-color="#0495D6"/>
</linearGradient>
<linearGradient id="paint13_linear_526_524" x1="3213.98" y1="-333.55" x2="-244.232" y2="7635.04" gradientUnits="userSpaceOnUse">
<stop stop-color="#38A7E4" stop-opacity="0.329"/>
<stop offset="0.962" stop-color="#0E88D3"/>
<stop offset="1" stop-color="#0E88D3"/>
</linearGradient>
<linearGradient id="paint14_linear_526_524" x1="2874.36" y1="-24.1649" x2="2874.36" y2="8318.65" gradientUnits="userSpaceOnUse">
<stop stop-color="#168CD4"/>
<stop offset="0.5" stop-color="#1C87CC"/>
<stop offset="1" stop-color="#154B8D"/>
</linearGradient>
<linearGradient id="paint15_linear_526_524" x1="456.161" y1="-725.133" x2="490.791" y2="144.56" gradientUnits="userSpaceOnUse">
<stop stop-color="#97D6EE"/>
<stop offset="0.703" stop-color="#55C1EA"/>
<stop offset="1" stop-color="#55C1EA"/>
</linearGradient>
<linearGradient id="paint16_linear_526_524" x1="173.095" y1="-36.3233" x2="327.796" y2="-946.922" gradientUnits="userSpaceOnUse">
<stop stop-color="#7ACCEC"/>
<stop offset="1" stop-color="#3FB7ED"/>
</linearGradient>
<linearGradient id="paint17_linear_526_524" x1="2139.65" y1="427.036" x2="2139.65" y2="8586.98" gradientUnits="userSpaceOnUse">
<stop stop-color="#1DA7E7"/>
<stop offset="1" stop-color="#37ABE7" stop-opacity="0"/>
</linearGradient>
</defs>
</svg>
