<svg width="47" height="50" viewBox="0 0 47 50" fill="none" xmlns="http://www.w3.org/2000/svg">
<path d="M3.57838 30.4023C2.66441 27.5609 2.40076 24.5616 2.92805 21.4746C3.15654 20.1942 3.50807 18.9664 3.89475 17.7211C3.89475 17.7211 6.32027 9.77558 14.5284 6.14485C14.5284 6.14485 17.3582 4.65398 21.6116 4.54874C21.6116 4.54874 21.0316 3.98747 20.6625 3.74191C18.6588 2.40889 15.6709 1.9704 13.8605 3.84715C13.3156 4.40842 12.8587 5.02231 12.3489 5.58358C11.7689 6.21501 11.0659 6.7412 10.2574 7.03938C9.55431 7.30247 8.85126 7.24986 8.13063 7.37263C7.39243 7.49541 6.63665 7.75851 6.03905 8.23208C5.38873 8.75827 5.12509 9.45986 5.05478 10.2667C4.98448 10.8981 5.00205 11.5471 4.9669 12.1785C4.87902 14.0377 4.28143 14.5639 2.94563 15.5988C2.38319 16.0197 1.90863 16.581 1.5571 17.1773C0.502526 19.0366 2.18985 20.9659 2.27773 22.8427C2.29531 23.2285 2.26015 23.6144 2.11954 23.9828C1.97893 24.3862 1.69771 24.6493 1.46922 24.9825C1.15285 25.421 0.941933 25.9472 1.02981 26.4909C1.1177 27.0347 1.39892 27.5433 1.66256 28.0169C2.17227 28.8588 2.80502 29.613 3.47292 30.3321C3.50807 30.3321 3.54322 30.3672 3.57838 30.4023Z" fill="#E32286"/>
<path d="M37.1136 37.1376C41.1561 35.3836 42.8786 32.3492 42.8786 32.3492C46.6575 27.2101 45.3744 21.7903 45.3744 21.7903C42.9665 27.0172 40.7694 28.4554 40.7694 28.4554C46.6926 19.4575 40.8046 14.0202 40.8046 14.0202C43.2125 19.1418 40.0137 25.386 40.0137 25.386C37.3245 31.0337 33.5104 33.0508 33.5104 33.0508C37.7639 33.8401 40.8925 30.9811 40.8925 30.9811C34.7935 37.5585 28.1848 37.2428 28.1848 37.2428C30.9619 40.3473 35.1274 40.0842 35.1274 40.0842C29.6788 41.3646 24.5641 39.5581 20.3634 36.0677C19.5724 35.4187 18.8167 34.7171 18.1136 33.9629C18.1136 33.9629 17.4809 33.2964 17.3578 33.121L17.3402 33.1034C17.2524 36.3483 20.6446 39.3651 20.6446 39.3651C16.3911 37.6111 14.4402 33.805 14.4402 33.805C14.4402 33.805 11.5752 28.929 13.6492 23.3689C15.7232 17.8088 21.998 16.6161 21.998 16.6161C27.183 19.1243 31.577 19.9136 31.577 19.9136C40.8397 21.4571 40.3125 16.9318 40.3125 16.9318C40.4003 13.038 34.5123 8.89862 34.5123 8.89862C24.0192 1.12852 14.528 6.14488 14.528 6.14488C6.31992 9.7756 3.89439 17.7211 3.89439 17.7211C3.50771 18.9664 3.15619 20.1942 2.92769 21.4746C2.0313 26.6839 3.38468 31.6126 6.31992 35.9975C10.8898 42.8029 18.3069 45.1532 18.3069 45.1532C29.2921 48.8716 36.7972 43.3993 36.7972 43.3993C43.7047 38.6635 45.0932 33.1911 45.0932 33.1911C39.5215 37.541 37.1136 37.1376 37.1136 37.1376ZM28.5363 11.5471C29.0636 11.5471 29.4855 11.9681 29.4855 12.4943C29.4855 13.0205 29.0636 13.4414 28.5363 13.4414C28.0091 13.4414 27.5872 13.0205 27.5872 12.4943C27.5872 11.9681 28.0091 11.5471 28.5363 11.5471Z" fill="url(#paint0_linear_585_2380)"/>
<path d="M40.2952 16.9142C40.3831 13.0204 34.495 8.88105 34.495 8.88105C24.002 1.12849 14.5108 6.14485 14.5108 6.14485C6.30264 9.77557 3.87711 17.7211 3.87711 17.7211C3.40255 19.0716 2.98072 21.1413 2.98072 21.1413C2.47101 23.7372 2.6995 26.1401 2.6995 26.1401C2.91041 28.4378 3.42013 29.9813 3.42013 29.9813C3.94742 31.6301 4.19348 32.1387 4.19348 32.1387C4.17591 32.0861 4.08803 31.7002 4.08803 31.7002C4.08803 31.7002 3.34982 28.1572 4.0353 24.7545C4.0353 24.7545 4.63289 21.2115 7.05842 18.4753C7.05842 18.4753 10.9955 12.8801 18.3248 15.0726C18.3248 15.0726 19.9067 15.6338 20.4515 15.9145C20.9964 16.1776 21.9455 16.581 21.9455 16.581C27.1305 19.0892 31.5246 19.8785 31.5246 19.8785C40.8225 21.4395 40.2952 16.9142 40.2952 16.9142ZM28.5366 13.4589C28.0094 13.4589 27.5875 13.038 27.5875 12.5118C27.5875 11.9856 28.0094 11.5646 28.5366 11.5646C29.0639 11.5646 29.4858 11.9856 29.4858 12.5118C29.4858 13.038 29.0639 13.4589 28.5366 13.4589Z" fill="url(#paint1_radial_585_2380)"/>
<path d="M22.5241 9.86328L16.5306 8.00407C16.4954 8.00407 16.3196 7.91637 16.0033 8.00407C16.0033 8.00407 12.4704 8.89859 13.0856 10.828C13.0856 10.828 13.4547 12.0382 14.4566 13.2134L21.0477 12.8976L22.5241 9.86328Z" fill="url(#paint2_linear_585_2380)"/>
<defs>
<linearGradient id="paint0_linear_585_2380" x1="7.77805" y1="43.1013" x2="29.6009" y2="19.8372" gradientUnits="userSpaceOnUse">
<stop stop-color="#E01D84"/>
<stop offset="0.401" stop-color="#DF1D85"/>
<stop offset="0.77" stop-color="#932C87"/>
<stop offset="1" stop-color="#5D2F88"/>
</linearGradient>
<radialGradient id="paint1_radial_585_2380" cx="0" cy="0" r="1" gradientUnits="userSpaceOnUse" gradientTransform="translate(31.8508 13.7226) rotate(0.136652) scale(21.3697 17.8321)">
<stop stop-color="#E01D84"/>
<stop offset="0.139" stop-color="#DE1E85"/>
<stop offset="0.285" stop-color="#D62085"/>
<stop offset="0.434" stop-color="#C92386"/>
<stop offset="0.586" stop-color="#B72786"/>
<stop offset="0.739" stop-color="#9D2B87"/>
<stop offset="0.891" stop-color="#7C2E88"/>
<stop offset="1" stop-color="#5D2F88"/>
</radialGradient>
<linearGradient id="paint2_linear_585_2380" x1="12.9998" y1="10.5887" x2="22.519" y2="10.5887" gradientUnits="userSpaceOnUse">
<stop stop-color="#E01D84"/>
<stop offset="0.238" stop-color="#DA1E85"/>
<stop offset="0.658" stop-color="#C72085"/>
<stop offset="0.999" stop-color="#B52284"/>
</linearGradient>
</defs>
</svg>
