<svg width="47" height="46" viewBox="0 0 47 46" fill="none" xmlns="http://www.w3.org/2000/svg">
<path fill-rule="evenodd" clip-rule="evenodd" d="M23.9629 2.875C27.9432 2.875 31.8342 4.05531 35.1437 6.26667C38.4533 8.47804 41.0328 11.6211 42.556 15.2985C44.0792 18.9759 44.4777 23.0223 43.7012 26.9262C42.9247 30.8301 41.0079 34.416 38.1934 37.2305C35.3789 40.0451 31.793 41.9618 27.8891 42.7383C23.9852 43.5148 19.9387 43.1163 16.2614 41.5931C12.584 40.0699 9.44093 37.4904 7.22956 34.1809C5.0182 30.8713 3.83789 26.9803 3.83789 23C3.83789 17.6625 5.9582 12.5436 9.73237 8.76948C13.5065 4.99531 18.6254 2.875 23.9629 2.875Z" fill="#CC6699"/>
<path d="M36.5872 11.4885C35.6759 7.91487 29.749 6.74475 24.1399 8.73137C20.6271 9.91178 17.3816 11.7734 14.5892 14.2097C11.5 17.0991 11.0069 19.6147 11.2096 20.6655C11.9284 24.3743 17.007 26.7979 19.0957 28.5962V28.6062C18.4805 28.9096 13.9725 31.1938 12.9145 33.5225C11.8019 35.9835 13.0913 37.7488 13.9466 37.9859C15.2308 38.2951 16.5795 38.1945 17.8035 37.6982C19.0276 37.2019 20.0656 36.3349 20.7719 35.2188C21.3556 34.3144 21.7207 33.2867 21.8385 32.2168C21.9563 31.147 21.8234 30.0644 21.4504 29.0548C22.4564 28.7991 23.5022 28.7391 24.5309 28.8779C28.0614 29.2905 28.7543 31.4942 28.622 32.4171C28.5598 32.7456 28.4276 33.0568 28.2344 33.3297C28.0412 33.6025 27.7915 33.8306 27.5022 33.9983C27.255 34.1521 27.1788 34.2039 27.2004 34.3189C27.2305 34.4842 27.3441 34.4784 27.5554 34.4425C28.086 34.2754 28.5534 33.9515 28.8963 33.5135C29.2391 33.0755 29.4412 32.5438 29.4759 31.9887C29.5607 29.8324 27.4893 27.4088 23.8208 27.4706C22.7553 27.4402 21.6921 27.5859 20.6741 27.9019C20.6238 27.8444 20.572 27.7869 20.5189 27.7294C18.2505 25.3101 14.0587 23.598 14.2355 20.3449C14.3002 19.1619 14.7114 16.0482 22.2855 12.2705C28.4955 9.17556 33.4664 10.028 34.326 11.9154C35.5537 14.6122 31.6695 19.6219 25.2209 20.3449C24.5082 20.4896 23.772 20.472 23.067 20.2933C22.362 20.1146 21.7063 19.7795 21.1485 19.3128C20.8092 18.9391 20.7589 18.9232 20.6324 18.9922C20.4269 19.1058 20.5577 19.4364 20.6324 19.6319C20.8793 20.077 21.2126 20.4682 21.6128 20.7827C22.0129 21.0971 22.4718 21.3286 22.9626 21.4633C25.498 22.0142 28.1426 21.7527 30.521 20.7158C34.4324 19.2079 37.4828 15.0032 36.5872 11.4885ZM19.964 29.7031C20.2495 30.6873 20.235 31.7344 19.9223 32.7103C19.8888 32.8119 19.8519 32.9125 19.8116 33.0122C19.7714 33.1119 19.7278 33.2077 19.6808 33.2997C19.4389 33.7947 19.1255 34.2514 18.7507 34.6553C17.582 35.9303 15.9476 36.4133 15.2475 36.0065C14.4914 35.5681 14.8695 33.7698 16.225 32.3366C17.2666 31.3066 18.4675 30.4513 19.7814 29.8037L19.964 29.7031Z" fill="white"/>
</svg>
