<svg width="50" height="50" viewBox="0 0 50 50" fill="none" xmlns="http://www.w3.org/2000/svg">
<path d="M20.3788 36.3636L23.1818 29.5455H29.4697C31.9697 29.5455 34.0151 27.5 34.0151 25C34.0151 22.5 31.9697 20.4545 29.4697 20.4545H9.01515L20.3788 9.09091V13.6364H29.4697C35.7576 13.6364 40.8333 18.7121 40.8333 25C40.8333 31.1363 35.9849 36.0606 30 36.2879L39.2424 45.5303C45.7576 40.9848 50 33.4848 50 25C50 11.2121 38.7879 0 25 0C11.2121 0 0 11.2121 0 25C0 38.7879 11.2121 50 25 50C27.7273 50 30.3788 49.5455 32.803 48.7121L20.3788 36.3636Z" fill="#00ABEC"/>
</svg>
