<svg width="50" height="50" viewBox="0 0 50 50" fill="none" xmlns="http://www.w3.org/2000/svg">
<g clip-path="url(#clip0_419_334)">
<path fill-rule="evenodd" clip-rule="evenodd" d="M0 0H50V50H0V0Z" fill="#F7DF1E"/>
<path fill-rule="evenodd" clip-rule="evenodd" d="M13.1485 41.7836L16.9749 39.468C17.713 40.7768 18.3845 41.8842 19.9953 41.8842C21.5392 41.8842 22.5126 41.2802 22.5126 38.931V22.9548H27.2114V38.9975C27.2114 43.8641 24.3587 46.0793 20.1967 46.0793C16.4379 46.0793 14.256 44.1325 13.1484 41.7832" fill="black"/>
<path fill-rule="evenodd" clip-rule="evenodd" d="M29.7617 41.2801L33.5876 39.065C34.5947 40.7097 35.9037 41.9179 38.2194 41.9179C40.1663 41.9179 41.4078 40.9445 41.4078 39.602C41.4078 37.9909 40.1325 37.4203 37.9844 36.4808L36.8101 35.977C33.42 34.5341 31.1712 32.7217 31.1712 28.8954C31.1712 25.3713 33.8562 22.6862 38.0517 22.6862C41.0389 22.6862 43.1869 23.7267 44.7306 26.4454L41.0722 28.7946C40.2666 27.3516 39.3943 26.7811 38.0518 26.7811C36.6757 26.7811 35.803 27.6537 35.803 28.7946C35.803 30.2043 36.6757 30.775 38.6893 31.6477L39.8639 32.1512C43.8579 33.863 46.1067 35.6081 46.1067 39.5348C46.1067 43.764 42.784 46.0796 38.3202 46.0796C33.957 46.0796 31.1377 43.9989 29.7618 41.2801" fill="black"/>
</g>
<defs>
<clipPath id="clip0_419_334">
<rect width="50" height="50" fill="white"/>
</clipPath>
</defs>
</svg>
