<svg width="47" height="46" viewBox="0 0 47 46" fill="none" xmlns="http://www.w3.org/2000/svg">
<g clip-path="url(#clip0_585_2410)">
<path d="M23.9629 46C36.6654 46 46.9629 35.7025 46.9629 23C46.9629 10.2975 36.6654 0 23.9629 0C11.2603 0 0.962891 10.2975 0.962891 23C0.962891 35.7025 11.2603 46 23.9629 46Z" fill="#13AA52"/>
<path d="M30.1119 20.1897C28.6591 13.778 25.2257 11.6698 24.856 10.8644C24.4517 10.2961 24.042 9.28535 24.042 9.28535C24.0353 9.26828 24.0245 9.23818 24.0119 9.20898C23.9701 9.77725 23.9486 9.99646 23.4113 10.5697C22.5794 11.2201 18.3109 14.8018 17.9636 22.0863C17.6398 28.8803 22.8714 32.9286 23.5789 33.4448L23.6593 33.5018V33.4969C23.6638 33.531 23.8839 35.1141 24.0384 36.7915H24.5928C24.7228 35.6058 24.9178 34.4281 25.1767 33.2637L25.2217 33.2346C25.5382 33.0076 25.8399 32.7608 26.125 32.4956L26.1574 32.4664C27.6614 31.077 30.3652 27.8632 30.3387 22.7395C30.3331 21.8848 30.2572 21.032 30.1119 20.1897ZM23.9796 29.6089C23.9796 29.6089 23.9796 20.0801 24.294 20.0819C24.5393 20.0819 24.8569 32.373 24.8569 32.373C24.4203 32.3204 23.9796 30.3501 23.9796 29.6089Z" fill="white"/>
</g>
<defs>
<clipPath id="clip0_585_2410">
<rect width="46" height="46" fill="white" transform="translate(0.962891)"/>
</clipPath>
</defs>
</svg>
