<svg width="42" height="50" viewBox="0 0 42 50" fill="none" xmlns="http://www.w3.org/2000/svg">
<g clip-path="url(#clip0_585_2402)">
<path d="M17.5124 0.000308529C17.3617 -0.0172921 14.9423 0.853157 13.3881 1.4847C11.281 2.34044 9.64418 3.16208 8.63552 3.8703C8.30694 4.10095 7.90607 4.49163 7.76432 4.70786C7.76324 4.70402 7.76159 4.70051 7.76058 4.69664C7.76058 4.69664 7.74091 4.72642 7.72319 4.7789C7.72224 4.78107 7.72025 4.78428 7.71946 4.78638C7.71274 4.80736 7.70603 4.82992 7.70077 4.85742C7.6889 4.9083 7.68245 4.96221 7.68207 5.01821L7.69328 5.02942C7.69777 5.10516 7.7152 5.19266 7.75311 5.28741C7.84046 5.50577 8.09968 5.7686 8.38875 6.04646C8.38875 6.04646 11.4166 8.99848 11.7876 9.4266C13.4653 11.3629 14.1955 13.271 14.2629 15.9027C14.3061 17.5916 13.9808 19.0755 13.1898 20.801C11.7719 23.8935 8.78506 27.3023 4.17108 31.0947L4.22716 31.076C4.19936 31.0983 4.16806 31.1256 4.14116 31.147C3.59052 31.5859 2.77236 32.3984 2.35382 32.9193C1.73121 33.6943 1.24325 34.5197 1.03395 35.1553C0.657334 36.2988 0.84229 37.4554 1.56864 38.5242C2.49648 39.8895 4.34108 41.2779 6.48929 42.2221C7.58505 42.7038 9.43641 43.3228 10.8229 43.6729C13.1336 44.2564 17.599 44.8911 20.0585 44.9854C20.5573 45.0045 21.2208 45.0055 21.2513 44.9854C21.3053 44.9497 21.6895 44.2215 22.1337 43.314C23.6453 40.2262 24.7384 37.3321 25.327 34.8599C25.6833 33.3629 25.9584 31.3675 26.1384 29.0007C26.1888 28.3377 26.207 26.1254 26.1683 25.3739C26.1052 24.1509 26.0009 23.1552 25.828 22.1769C25.8158 22.108 25.8059 22.0438 25.8018 21.9937C31.2758 20.367 37.3265 18.8915 41.3373 18.2771L41.9618 18.1836L41.8645 18.034C41.3191 17.1862 40.9478 16.6625 40.4998 16.1084C39.1908 14.4895 37.6054 13.1674 35.6635 12.0797C32.9977 10.5872 29.5374 9.42756 25.1653 8.55818C24.3407 8.39422 22.5385 8.08838 21.0673 7.85896L20.9215 7.59722C20.1179 6.17924 19.2308 4.4248 18.7153 3.23738C18.3161 2.31784 17.9334 1.26003 17.7207 0.492828C17.5944 0.0372089 17.5815 0.0074517 17.5113 -0.000732422L17.5124 0.000308529ZM17.3964 0.34805C17.4024 0.346967 17.4066 0.346927 17.4076 0.34805C17.4123 0.353765 17.4398 0.544445 17.4674 0.770562C17.5838 1.72289 17.7957 2.64812 18.1292 3.64218C18.3805 4.39128 18.3834 4.34635 18.0843 4.26287C17.3891 4.06884 14.2767 3.53546 12.0233 3.22341C11.6602 3.17313 11.3551 3.12726 11.3503 3.12245C11.3217 3.09384 12.9766 2.22589 13.7097 1.88478C14.6499 1.44733 17.2101 0.381552 17.3964 0.34805ZM10.8305 3.39915L11.096 3.48889C12.5427 3.98135 16.1697 4.67599 18.1741 4.84238C18.4002 4.86116 18.5871 4.87824 18.5928 4.88351C18.5986 4.88878 18.4065 4.99139 18.1666 5.11159C17.1997 5.59596 16.1359 6.18757 15.3997 6.64838C15.2253 6.75754 15.0697 6.84602 14.9996 6.87646C14.7784 6.83887 14.5556 6.79869 14.334 6.76055L13.6872 6.13238C12.4847 4.96974 11.543 4.07211 11.1805 3.73207L10.829 3.39929L10.8305 3.39915ZM10.565 3.61227L11.5222 4.80878C12.0497 5.46672 12.579 6.11908 12.6963 6.25955C12.8057 6.39054 12.8842 6.49581 12.8908 6.51381C12.2105 6.3957 11.4847 6.26487 10.9239 6.14363C10.8855 6.13532 10.83 6.12364 10.7856 6.11372C10.754 6.10649 10.7333 6.10195 10.7033 6.09502C10.6134 6.07457 10.5203 6.05308 10.4154 6.02772C10.2974 5.99968 10.1912 5.9738 10.0939 5.9492C9.93492 5.9081 9.77049 5.86191 9.60778 5.81459C9.60524 5.81384 9.60285 5.8116 9.6003 5.81085C9.50688 5.78363 9.41398 5.7573 9.32361 5.72859C9.3095 5.72411 9.29687 5.72198 9.28248 5.71737C9.22732 5.69959 9.17458 5.67949 9.12169 5.66129C9.05589 5.63532 8.9805 5.60601 8.90871 5.57921V5.50443C8.91346 5.04493 9.49243 4.36566 10.4754 3.67233L10.5652 3.6125L10.565 3.61227ZM18.7238 5.24252C18.7525 5.24474 18.781 5.30327 18.8659 5.4893C19.0983 5.99837 19.8239 7.3799 19.9988 7.64672C20.0132 7.6687 20.0271 7.68484 20.0287 7.69533C18.5503 7.46304 17.2914 7.25907 16.1364 7.06716C16.1424 7.05563 16.2051 7.01489 16.2859 6.96995C17.0005 6.57257 17.7232 6.07143 18.3649 5.53043C18.5183 5.40107 18.6631 5.28003 18.6902 5.25748C18.7013 5.2482 18.7142 5.24178 18.7238 5.24252ZM9.51426 6.39799C9.51851 6.39415 9.63361 6.42944 9.77225 6.47651C10.0278 6.56325 10.3632 6.66595 10.7556 6.77563C11.0306 6.85247 11.3358 6.93287 11.6568 7.01494C12.0665 7.11968 12.404 7.21198 12.4083 7.21685C12.4537 7.26784 13.1421 9.46281 13.3767 10.3053C13.4663 10.6269 13.5327 10.8934 13.5263 10.8998C13.5199 10.9062 13.4435 10.7884 13.358 10.6381C12.562 9.23815 11.3011 7.81669 9.8433 6.67091C9.6616 6.5281 9.51426 6.40338 9.51426 6.39799ZM12.8682 7.32528C12.9033 7.32286 13.0544 7.349 13.2346 7.38884C14.3955 7.64556 16.4708 8.04706 17.8039 8.27127C18.0259 8.30863 18.2077 8.34877 18.2077 8.36101C18.2077 8.37324 18.1254 8.42615 18.0245 8.47692C17.8008 8.58942 16.8952 9.13051 16.5924 9.33317C15.8365 9.83909 15.158 10.3813 14.663 10.8737C14.4641 11.0715 14.2982 11.2326 14.2928 11.2326C14.2875 11.2326 14.2512 11.116 14.2143 10.9746C13.9669 10.0261 13.4539 8.62505 12.9953 7.63936C12.9215 7.48074 12.8607 7.34131 12.8607 7.32901C12.8607 7.32746 12.8632 7.3256 12.8682 7.32528ZM18.7723 8.44701C18.8111 8.45995 18.8815 8.69106 19.0116 9.20605C19.2607 10.1922 19.3792 11.2999 19.3406 12.3244C19.3299 12.6095 19.3106 12.8725 19.2995 12.9114L19.277 12.9825L18.9256 12.8703C18.2005 12.6382 17.0147 12.2876 15.9989 12.0064C15.4215 11.8466 14.9482 11.7064 14.9482 11.6923C14.9482 11.6501 15.79 10.8048 16.1521 10.4846C16.844 9.87297 18.7073 8.42478 18.7732 8.4468L18.7723 8.44701ZM19.2396 8.51431C19.2606 8.49476 22.0582 8.98126 23.3303 9.22474C24.2783 9.40623 25.6518 9.69125 25.7345 9.72578C25.7744 9.74245 25.6328 9.82327 25.1774 10.0286C23.3759 10.841 22.0396 11.5638 20.713 12.4516C20.3636 12.6854 20.0759 12.8778 20.0699 12.8778C20.0638 12.8778 20.0588 12.6823 20.0587 12.4441C20.0577 11.1504 19.7994 9.84563 19.3258 8.74233C19.2748 8.62361 19.2347 8.519 19.2398 8.51425L19.2396 8.51431ZM26.4785 9.94641C26.5002 9.96809 26.4085 10.5215 26.329 10.8475C26.0813 11.8623 25.4225 13.3692 24.6127 14.7848C24.47 15.0342 24.3433 15.2402 24.3285 15.2447C24.3137 15.2492 24.1309 15.1544 23.921 15.0316C23.1291 14.5684 22.2322 14.1289 21.2475 13.7228C20.9729 13.6096 20.736 13.5097 20.724 13.4985C20.6791 13.4563 22.8692 12.0073 24.0294 11.3111C24.9573 10.7543 26.4524 9.92033 26.4785 9.94641ZM26.9945 10.0287C27.0575 10.0287 28.297 10.3677 28.9388 10.5596C30.5376 11.0378 32.3826 11.7101 33.579 12.2534L34.0763 12.4777L33.7286 12.56C30.8012 13.2325 28.2894 14.0095 25.8728 14.9904C25.672 15.0719 25.4999 15.1399 25.4876 15.1399C25.4754 15.1399 25.5367 14.982 25.626 14.7922C26.3524 13.2488 26.8241 11.6319 26.9459 10.2567C26.957 10.1315 26.9783 10.0287 26.9945 10.0287ZM14.6561 12.863C14.6759 12.8434 15.6215 13.066 16.1368 13.2107C16.9113 13.4281 18.5586 13.9798 18.5597 14.0221C18.5597 14.0303 18.3777 14.188 18.1559 14.3735C17.2648 15.119 16.4073 15.8993 15.3777 16.8936C15.0725 17.1884 14.811 17.4283 14.7982 17.4283C14.7853 17.4283 14.7798 17.3836 14.7869 17.3311C14.942 16.1865 14.9093 14.7179 14.6935 13.2218C14.6661 13.0322 14.6492 12.8697 14.6561 12.863ZM34.5517 12.8817C34.5658 12.8958 34.1117 13.6036 33.83 14.0071C33.419 14.5958 32.8241 15.3703 31.4669 17.0769C30.754 17.9733 29.9505 18.9883 29.6796 19.3316C29.4087 19.6748 29.1813 19.956 29.1748 19.956C29.1683 19.956 29.0804 19.8325 28.9804 19.6831C28.2153 18.5401 27.3076 17.537 26.2247 16.6357C26.0226 16.4675 25.7959 16.2809 25.7199 16.2244C25.6439 16.1679 25.5819 16.1165 25.5816 16.1085C25.5808 16.0898 26.7365 15.5928 27.6193 15.2335C29.1562 14.6081 31.2559 13.8609 32.8278 13.3789C33.6568 13.1248 34.5391 12.8691 34.5517 12.8817ZM35.0714 13.02C35.0962 13.0149 35.2623 13.0935 35.4603 13.207C37.1159 14.1554 38.7387 15.3756 40.0144 16.6283C40.3773 16.9845 41.2653 17.9068 41.2521 17.9145C41.2487 17.9165 40.9431 17.9389 40.5716 17.9668C37.7026 18.1826 34.0337 18.7928 30.5022 19.642C30.2624 19.6996 30.0556 19.7504 30.0423 19.7504C30.029 19.7504 30.2917 19.4844 30.6256 19.1634C32.6995 17.1696 33.6442 15.9123 34.7573 13.6631C34.9231 13.3281 35.0655 13.0376 35.0714 13.02ZM19.9092 14.5755C20.004 14.5967 20.8869 15.0077 21.5544 15.342C22.1649 15.6476 23.0899 16.14 23.1361 16.1833C23.1419 16.1887 22.8151 16.3586 22.4107 16.5609C21.1306 17.2014 20.0371 17.8059 18.8923 18.5052C18.5658 18.7047 18.2915 18.8679 18.2828 18.8679C18.2542 18.8679 18.2646 18.8436 18.4473 18.509C19.057 17.3924 19.5478 16.0577 19.8307 14.7549C19.856 14.6386 19.8879 14.5707 19.9092 14.5755ZM19.0193 14.7325C19.0378 14.751 18.8058 15.5947 18.6604 16.045C18.3815 16.9084 17.9094 17.9949 17.4565 18.8119C17.3501 19.0038 17.19 19.2846 17.0975 19.4363L16.9292 19.7093L16.5441 19.3428C16.1001 18.9124 15.7384 18.6419 15.2765 18.4043C15.095 18.311 14.9477 18.2263 14.9475 18.2136C14.9467 18.1575 16.1106 17.099 17.0078 16.3404C17.65 15.7973 19.0029 14.7161 19.0193 14.7325ZM24.4335 16.961L24.7663 17.1741C25.5284 17.6689 26.4302 18.3358 27.1182 18.9091C27.5037 19.2303 28.2504 19.9019 28.4044 20.0644L28.4904 20.1504L27.937 20.3037C24.8163 21.1696 22.4045 21.9434 19.5914 22.9772C19.2792 23.0919 19.0116 23.1866 18.9931 23.1866C18.9543 23.1866 18.9157 23.2193 19.6176 22.5734C21.4169 20.9175 23.0064 19.0949 24.1942 17.32L24.4335 16.961ZM23.009 17.3162C23.0253 17.3325 22.086 18.6491 21.5283 19.3914C20.8611 20.2795 19.6725 21.764 18.8548 22.7304C18.5132 23.1342 18.2238 23.4691 18.208 23.4745C18.1906 23.4804 18.1784 23.3805 18.178 23.224C18.1764 22.3993 17.9671 21.5174 17.5985 20.7711C17.4428 20.4559 17.4168 20.3815 17.4489 20.3524C17.5772 20.2361 19.5627 19.1013 20.8141 18.4305C21.6737 17.9697 22.9926 17.2999 23.009 17.3162ZM14.4073 19.4233C14.4243 19.4233 14.5814 19.5045 14.7587 19.6028C15.1932 19.8434 15.5847 20.1082 15.9291 20.3954C15.9424 20.4065 15.7641 20.5501 15.5327 20.717C14.887 21.1829 13.9037 21.9279 13.3341 22.3809C12.7333 22.8588 12.7132 22.8731 12.7808 22.7697C13.2307 22.0815 13.4568 21.6895 13.6931 21.1918C13.9031 20.7494 14.1119 20.224 14.2614 19.7672C14.3236 19.5774 14.3902 19.4233 14.4073 19.4233ZM16.6993 21.2217C16.7303 21.2179 16.773 21.2754 16.9573 21.5508C17.3457 22.1312 17.6432 22.9061 17.7201 23.5363L17.735 23.6709L16.804 24.0336C15.1328 24.6821 13.5956 25.3226 12.5564 25.7984C12.2657 25.9315 11.7511 26.1766 11.416 26.3443C11.0808 26.512 10.8102 26.6432 10.8102 26.636C10.8102 26.6288 11.0205 26.4712 11.2776 26.2845C13.3171 24.8039 15.0755 23.1826 16.4001 21.562C16.5418 21.3887 16.6681 21.2355 16.6843 21.2255C16.6886 21.2228 16.6949 21.2223 16.6993 21.2217ZM15.6411 21.4835C15.6681 21.5105 14.8873 22.3947 14.3623 22.9305C13.0484 24.2716 11.7471 25.3207 10.1334 26.3443C9.93146 26.4724 9.74629 26.5881 9.72206 26.6023C9.67776 26.6282 9.73518 26.5629 10.4437 25.7909C10.8902 25.3045 11.2335 24.9003 11.6215 24.3963C11.877 24.0643 11.924 24.0196 12.2983 23.7494C13.3066 23.0216 15.6142 21.4567 15.6411 21.4835ZM24.7758 22.2986C24.8725 22.6904 25.0509 24.4571 25.1011 25.6302C25.1131 25.9118 25.1103 26.0938 25.0936 26.0938C25.0398 26.0938 23.937 25.4471 23.1567 24.9571C22.4831 24.5341 21.2194 23.6928 20.9917 23.5176C22.1827 23.1126 23.457 22.7007 24.7758 22.2986ZM20.2702 23.7643C20.3637 23.8103 20.5052 23.8969 20.7413 24.0448C22.1475 24.9256 24.0534 25.9843 24.8693 26.3406C25.1223 26.4511 25.1528 26.4086 24.5701 26.8043C23.328 27.6477 21.781 28.4784 19.8851 29.3207C19.5547 29.4674 19.2757 29.5861 19.2644 29.5861C19.2531 29.5861 19.291 29.4182 19.3467 29.2122C19.8059 27.5133 20.0648 25.7978 20.072 24.4225C20.0738 24.0855 20.0749 23.9166 20.0833 23.828C20.1445 23.8065 20.2085 23.7859 20.2702 23.7643ZM19.2158 24.1382C19.2408 24.4107 19.2121 25.6883 19.1672 26.0639C19.0479 27.0602 18.8544 27.9813 18.5427 29.029C18.4682 29.2793 18.3968 29.4947 18.3857 29.5076C18.3586 29.539 17.4279 28.6331 17.1181 28.2737C16.5887 27.6597 16.1706 27.0499 15.8655 26.4491C15.7347 26.1915 15.5398 25.7249 15.4953 25.5741C16.4601 25.1818 17.4645 24.7916 18.5165 24.3963C18.741 24.3119 18.9815 24.2235 19.2158 24.1382ZM14.7839 25.8708C14.8029 25.9048 14.8388 25.9905 14.8774 26.0951C15.0945 26.6848 15.5827 27.5576 16.0066 28.1179C16.4694 28.7297 17.0721 29.3825 17.577 29.8156C17.7391 29.9546 17.8918 30.0843 17.9135 30.1035C17.9567 30.1418 17.9705 30.1343 16.8591 30.5559C15.571 31.0445 14.166 31.5346 12.5554 32.0552C11.9416 32.2536 11.4239 32.4217 11.4037 32.4291C11.3424 32.4519 11.3627 32.4139 11.5421 32.1338C12.3423 30.8844 13.5527 28.4407 14.2305 26.7121C14.3481 26.4123 14.4609 26.1137 14.481 26.0466C14.488 26.0232 14.4957 26.0038 14.5035 25.9867C14.5963 25.9479 14.6903 25.9097 14.7839 25.8708ZM13.3672 26.4726C13.2895 26.6667 13.0033 27.2593 12.7204 27.8113C12.0611 29.0973 11.3335 30.3648 10.3685 31.9093C10.202 32.1758 10.0491 32.4175 10.0282 32.4478C9.99397 32.4975 9.9806 32.4822 9.87495 32.272C9.64394 31.8126 9.45159 31.2332 9.35148 30.6941C9.2524 30.1605 9.26957 29.2367 9.38887 28.6637C9.4366 28.4345 9.46062 28.3334 9.50104 28.2711C10.7208 27.6621 12.0022 27.0651 13.3672 26.4726ZM25.1416 26.8802V27.1681C25.1401 28.6883 24.977 30.7721 24.7415 32.2906C24.7002 32.5571 24.6657 32.7777 24.663 32.7804C24.6603 32.7831 24.4682 32.7252 24.2367 32.6533C23.2138 32.3357 22.1038 31.8629 21.1033 31.3146C20.4408 30.9516 19.4836 30.3618 19.5105 30.335C19.5178 30.3277 19.7972 30.1775 20.135 30.0022C21.4728 29.3078 22.7518 28.5611 23.8628 27.8186C24.2797 27.54 24.9021 27.0877 25.0406 26.9661L25.1416 26.8802ZM8.25646 28.9068C8.26415 28.9329 8.25172 29.0103 8.21907 29.1985C8.1888 29.373 8.15679 29.7003 8.14428 29.9276C8.08948 30.924 8.25141 31.6587 8.74627 32.6646C8.88386 32.9443 8.99127 33.1796 8.98557 33.1844C8.93602 33.2258 4.43094 34.5426 3.01427 34.9306C2.59432 35.0455 2.22538 35.1496 2.19541 35.1586C2.14625 35.1734 2.14386 35.1618 2.16175 35.0465C2.31693 34.0468 3.07802 32.7341 4.14341 31.6327C4.74354 31.0123 5.24324 30.6039 5.96809 30.1596C6.30958 29.9624 6.7137 29.7381 7.26929 29.4342C7.59332 29.2569 7.9239 29.0815 8.25641 28.907L8.25646 28.9068ZM18.8707 30.7973C18.875 30.7922 19.0414 30.8801 19.2409 30.9955C20.6964 31.8372 22.7291 32.626 24.4606 33.0221L24.6177 33.0595L24.4008 33.1792C23.4962 33.6811 20.5187 34.9206 17.476 36.062C17.0318 36.2287 16.5999 36.3912 16.5151 36.4247C16.4303 36.4583 16.358 36.4838 16.358 36.4771C16.358 36.4704 16.4845 36.2265 16.6385 35.9386C17.4926 34.3415 18.3472 32.402 18.7848 31.0555C18.8294 30.9182 18.8665 30.8026 18.8708 30.7975L18.8707 30.7973ZM17.7864 31.1525C17.791 31.1572 17.7402 31.2979 17.6704 31.4666C17.0766 32.9026 16.2994 34.4706 15.3073 36.2302C15.0549 36.678 14.8405 37.0423 14.8325 37.0415C14.8244 37.0408 14.6191 36.921 14.3763 36.7723C12.9313 35.8877 11.6524 34.7989 10.813 33.7399L10.6933 33.5903L11.3178 33.4183C13.5402 32.8095 15.4226 32.158 17.2966 31.3506C17.5619 31.2363 17.7817 31.1479 17.7864 31.1525ZM24.5204 33.5007C24.5236 33.5014 24.5242 33.5054 24.5242 33.5082C24.5242 33.6596 24.1787 35.0587 23.8923 36.0732C23.652 36.9243 23.4507 37.5934 23.0771 38.7728C22.9121 39.2937 22.7715 39.7173 22.7631 39.7151C22.7546 39.7129 22.7137 39.7037 22.6733 39.6964C20.6489 39.33 18.838 38.8197 17.1395 38.1372C16.6643 37.9463 15.9754 37.6417 15.9392 37.6062C15.927 37.5942 16.3386 37.4038 16.8516 37.18C19.9538 35.8265 23.1672 34.285 24.2662 33.6241C24.3984 33.5446 24.4981 33.4961 24.5204 33.5007ZM8.98016 34.0316C8.9968 34.0474 8.12812 35.2931 6.91619 36.9893C6.49495 37.5788 6.00009 38.2702 5.81689 38.5298C5.63369 38.7895 5.35698 39.2026 5.19995 39.4459L4.91578 39.8871L4.60917 39.6291C4.25117 39.3285 3.62587 38.6934 3.34159 38.3391C2.75663 37.61 2.35759 36.8416 2.20117 36.1368C2.12896 35.8115 2.1288 35.6453 2.19744 35.6246C2.29664 35.5947 4.11401 35.1678 5.82059 34.7721C6.76858 34.5523 7.8659 34.2946 8.25848 34.2C8.65109 34.1054 8.97634 34.028 8.98016 34.0316ZM9.85137 34.3682L10.072 34.6112C11.0536 35.7047 12.0509 36.5209 13.2689 37.2248C13.484 37.3491 13.6493 37.4593 13.6354 37.4679C13.5847 37.4992 9.42401 38.9773 7.49954 39.6478C6.41422 40.0259 5.52279 40.3328 5.51789 40.3321C5.51296 40.3313 5.45232 40.2912 5.38328 40.2423L5.25615 40.1526L5.45431 39.8721C6.09325 38.9472 6.89611 37.9278 8.65139 35.8148L9.85268 34.3682L9.85137 34.3682ZM15.2918 38.2531C15.2966 38.2471 15.6004 38.3547 15.9685 38.4924C16.856 38.8242 17.5537 39.0417 18.4962 39.2776C19.6537 39.5673 21.3232 39.8559 22.3138 39.9394C22.4658 39.9523 22.5438 39.9689 22.5194 39.9843C22.4734 40.0134 21.4733 40.3507 20.7359 40.5826C19.5653 40.9505 15.9877 42.0054 13.0708 42.8447C12.5297 43.0004 12.0668 43.1313 12.0426 43.1363C11.9772 43.1499 11.7472 43.0922 11.7472 43.0615C11.7472 43.047 11.9113 42.8392 12.1098 42.6016C13.0903 41.4289 14.0637 40.1198 14.8768 38.8812C15.0991 38.5424 15.287 38.2591 15.2918 38.2531ZM14.0878 38.2868C14.0966 38.2955 13.6105 39.0717 12.7604 40.4106C12.4015 40.9759 11.9951 41.6177 11.8556 41.839C11.7161 42.0602 11.5127 42.3956 11.4032 42.5868L11.205 42.9345L11.1003 42.9083C10.856 42.8422 9.13623 42.2327 8.68107 42.0521C8.11698 41.8282 7.52917 41.5572 7.0957 41.323C6.55403 41.0302 5.86401 40.596 5.91788 40.5789C5.93338 40.574 6.86679 40.3203 7.98928 40.0143C10.9755 39.2003 12.6267 38.7333 13.71 38.3953C13.9125 38.3321 14.0838 38.283 14.0877 38.2868L14.0878 38.2868ZM22.5681 40.276C22.5745 40.2746 22.5788 40.2745 22.5793 40.276C22.6076 40.3466 21.499 43.4108 21.0949 44.3814C21.0044 44.5988 20.9738 44.6489 20.9267 44.6469C20.8123 44.6419 19.2085 44.4203 18.2382 44.273C16.5404 44.0157 13.6963 43.518 12.9784 43.3541L12.8101 43.3167L13.8309 43.0886C16.0129 42.597 17.0603 42.3334 18.1234 42.008C19.4641 41.5976 20.7908 41.0834 22.1317 40.46C22.3437 40.3614 22.5241 40.2865 22.5691 40.2768L22.5681 40.276Z" fill="black"/>
</g>
<defs>
<clipPath id="clip0_585_2402">
<rect width="41.12" height="50" fill="white" transform="translate(0.84375)"/>
</clipPath>
</defs>
</svg>
