<svg width="48" height="48" viewBox="0 0 48 48" fill="none" xmlns="http://www.w3.org/2000/svg">
<path d="M24.6328 1.8623C18.0271 1.8623 12.075 4.82441 8.02125 9.49173C8.6227 9.53212 9.21645 9.63677 9.79477 9.8031C9.79844 9.8031 9.80725 9.7987 9.81312 9.8031C13.5566 5.86428 18.8136 3.38723 24.6328 3.38723H24.6971C35.9734 3.38723 45.2052 12.6231 45.2052 23.9585C45.2052 35.2955 35.9738 44.5266 24.6971 44.5266H24.6324C13.3602 44.5266 4.1287 35.2955 4.1287 23.9585C4.1287 22.3433 4.32808 20.7787 4.68095 19.2681C4.47899 17.9084 4.22637 16.9045 3.93225 16.4184C3.05169 18.8347 2.60132 21.3867 2.60156 23.9585C2.60156 36.1257 12.5303 46.0082 24.6328 46.0082H24.6974C36.7999 46.0082 46.7529 36.1257 46.7529 23.9585C46.7529 11.7911 36.8003 1.86267 24.6974 1.86267L24.6328 1.8623Z" fill="#C08A27"/>
<path d="M41.8345 16.9547C40.181 12.24 36.1651 8.16059 31.1346 6.31474C28.015 5.16875 23.0437 5.48416 19.8594 6.50824C17.3122 7.33295 17.1815 7.33295 14.8278 8.7345C13.937 9.24379 12.2803 8.79766 11.6436 9.62934C11.0039 10.4555 12.3449 11.6676 12.4095 12.6862C12.4095 13.1305 14.0017 10.074 14.0017 10.4555C14.0017 11.4095 12.9185 13.4492 12.725 14.8533C12.3449 17.5239 13.2989 25.3585 13.937 27.9098C14.0619 28.2916 15.2725 27.8455 15.5938 27.7177C16.1031 27.6531 16.5492 25.9964 17.3122 25.4874C20.6254 23.1323 22.4051 20.0755 25.1451 19.5647C27.6335 19.116 30.6272 20.5847 31.7085 22.623C32.2836 23.7062 32.7282 24.9135 32.7282 25.6795C32.7282 26.2534 32.5362 26.5703 32.4069 26.2534C31.6454 24.0873 30.8794 22.431 30.1807 21.857C28.5243 20.5205 27.7569 20.136 25.3386 20.6453C22.8557 21.2189 18.2071 25.7456 16.7383 27.7824C15.846 28.9941 15.5306 31.0955 16.1633 32.0509C18.1424 34.915 19.7346 35.6809 23.2372 35.9335C23.3649 35.9335 24.3832 36.6363 23.9385 36.6363C19.4764 36.6363 17.2476 35.4246 14.2543 30.7099C13.937 30.2006 13.2357 28.2913 13.0422 27.7177C11.8342 24.4674 12.1514 19.0572 11.5147 14.723C11.3267 13.4488 11.0686 11.983 10.43 11.0926C9.41182 9.56508 3.23426 9.8816 2.34346 11.4741C1.83418 11.8556 1.64214 12.1754 2.02218 12.4291C5.4003 14.9767 5.4003 17.7809 5.52882 20.5201C5.65807 24.0873 5.65807 26.6995 6.9289 30.0126C9.47645 36.9518 15.2079 41.5431 21.6439 42.4324C29.4779 43.5799 35.1465 40.4588 39.4151 35.0427C43.239 30.2021 43.8724 22.6876 41.8345 16.9547ZM18.2658 12.8742C18.3304 12.3645 18.4582 11.1583 18.8397 10.7713C19.5411 10.1386 20.4961 9.75271 21.3267 10.2635C22.5347 10.9648 23.1083 11.791 23.0437 13.1305C22.9203 14.4028 21.4515 15.0413 20.3669 15.1687C21.2635 14.7226 22.4055 14.2151 22.2175 12.9384C22.0882 12.4941 21.1978 12.6858 20.878 12.3003C20.6254 11.983 20.9408 10.9648 20.6254 10.9016C20.4319 10.9016 20.1778 10.9016 19.9872 10.9648C19.2242 11.1568 18.5225 11.8556 18.2658 12.8742ZM16.8015 20.71C17.0585 20.3295 17.6967 19.6914 18.141 19.0576C18.7751 18.2267 18.7164 17.7192 19.6057 16.7638C18.8397 18.0343 19.1596 18.6082 18.4582 19.3745C18.141 19.6914 17.8197 20.2021 16.8015 20.71Z" fill="#C02E27"/>
</svg>
