<svg width="51" height="32" viewBox="0 0 51 32" fill="none" xmlns="http://www.w3.org/2000/svg">
<g clip-path="url(#clip0_585_2390)">
<path d="M8.53334 0.375L19.4639 18.7773L19.4734 10.4475L25.8158 20.3614L19.29 30.6174L8.47219 13.0617L8.44735 31.441H0.84375V0.375H8.53334ZM27.0675 9.06018L30.232 14.0286L30.2721 14.0974C32.3401 10.9511 35.8534 9.05757 39.6185 9.06018C45.7215 9.06018 50.6839 14.2257 50.8048 20.3068L50.807 20.5124H50.8012L50.801 20.5896C50.79 21.0945 50.5203 21.5603 50.0846 21.8206C49.6332 22.0902 49.0723 22.0986 48.6131 21.8426C48.1698 21.5954 47.8863 21.1379 47.8602 20.6335L47.8584 20.5793L47.8575 20.5094C47.8332 19.5477 47.3043 19.1574 46.6096 18.8696L46.5068 18.8282L46.4019 18.7879L46.2951 18.7484L45.7408 18.5517L45.6276 18.5102L45.5142 18.4672L45.4007 18.4225C45.3818 18.4148 45.3629 18.4071 45.344 18.3993L45.231 18.3512L45.1186 18.3005C44.6703 18.092 44.2417 17.8128 43.9009 17.3689L43.8609 17.3155L43.8211 17.2598L43.7617 17.1725L43.682 17.0495L43.4301 16.6463L43.3383 16.5041L43.2659 16.396L43.2156 16.3236L43.1369 16.2146L43.082 16.1419L43.0251 16.0694C43.0155 16.0574 43.0057 16.0453 42.9958 16.0333L42.9356 15.9613C42.3416 15.2675 41.4124 14.6439 39.6146 14.6439C38.128 14.6434 36.7021 15.2338 35.6509 16.285C34.5997 17.3362 34.0094 18.7621 34.0099 20.2487C34.014 20.4606 34.0642 20.6689 34.1567 20.8591L34.1857 20.9156L40.8739 31.441H33.4977L30.232 26.5127L27.0235 31.441H19.6492L26.6891 20.3576L19.4753 9.06018H27.0675ZM50.8146 22.0985C50.8896 22.6224 50.8154 23.1569 50.6006 23.6406C50.3424 24.2378 49.9784 24.3459 49.7358 24.3403L49.6955 24.3383L49.6577 24.3345L49.6229 24.3293L49.5767 24.3198L49.5383 24.3096L49.4889 24.2926L49.4709 24.2843L49.4492 24.272L49.4165 24.2517L49.3902 24.2336L49.3613 24.212L49.3307 24.1868C49.3255 24.1823 49.3203 24.1776 49.315 24.1729L49.2835 24.1423C49.1473 24.0025 49.0251 23.7635 49.2419 23.4304C49.4023 23.1827 49.6243 23.0439 49.8566 22.9191L50.0912 22.7952C50.3723 22.6436 50.6433 22.4665 50.8146 22.0985ZM27.0866 0.375V8.27288L27.0694 8.36078H19.4753L19.4734 8.27288L19.483 0.375H27.0866Z" fill="#012F55"/>
<path d="M38.8059 16.9734C36.9867 16.9389 35.343 18.0543 34.7031 19.7577C35.7684 18.1645 37.7969 17.5244 39.5836 18.2174C40.4092 18.5538 41.4946 19.0965 42.3545 18.806C41.5367 17.6583 40.2152 16.9758 38.8059 16.9734Z" fill="#96D8E9"/>
<path d="M47.4234 20.7112C47.4234 19.7805 46.917 19.5646 45.866 19.1824C45.0863 18.9111 44.2015 18.6053 43.5576 17.7645C43.4314 17.5983 43.3149 17.411 43.1907 17.2122C42.9124 16.6975 42.5351 16.2429 42.0804 15.8746C41.467 15.4236 40.6625 15.2039 39.6191 15.2039C37.5256 15.2053 35.6395 16.469 34.8418 18.4047C35.8502 17.0054 37.526 16.2473 39.2427 16.4138C40.9594 16.5802 42.4584 17.6461 43.1792 19.213C43.5393 19.8072 44.2496 20.091 44.92 19.9086C45.9462 19.6888 45.8755 20.6596 47.4253 20.9882L47.4234 20.7112Z" fill="#48C4E5"/>
</g>
<defs>
<clipPath id="clip0_585_2390">
<rect width="50" height="31.25" fill="white" transform="translate(0.84375 0.375)"/>
</clipPath>
</defs>
</svg>
