<svg width="46" height="48" viewBox="0 0 46 48" fill="none" xmlns="http://www.w3.org/2000/svg">
<g clip-path="url(#clip0_585_2319)">
<path d="M45.6682 28.6007C45.3975 27.7809 44.6883 27.2098 43.7711 27.0727C43.3387 27.0081 42.8434 27.0357 42.2574 27.1565C41.2359 27.3673 40.478 27.4475 39.9249 27.4631C42.0125 23.9383 43.7101 19.9186 44.6874 16.1349C46.2676 10.0168 45.4232 7.22958 44.4364 5.96878C41.8249 2.63195 38.0148 0.839236 33.418 0.784282C30.966 0.754355 28.8133 1.23851 27.6904 1.58658C26.6448 1.40222 25.5205 1.2992 24.3409 1.28011C22.1299 1.24487 20.1762 1.72683 18.5068 2.71746C17.5824 2.40504 16.0993 1.96448 14.3864 1.68325C10.3576 1.02182 7.11061 1.53726 4.73562 3.21506C1.85969 5.24657 0.526417 8.7761 0.77303 13.7057C0.851237 15.2709 1.72684 20.0329 3.10537 24.5492C3.89766 27.1449 4.7425 29.3006 5.61644 30.9568C6.85576 33.3052 8.18184 34.6882 9.67059 35.1847C10.5051 35.4628 12.0212 35.6574 13.6159 34.3296C13.818 34.5742 14.0875 34.8175 14.4455 35.0433C14.8999 35.33 15.4557 35.5642 16.0107 35.703C18.011 36.2031 19.8846 36.078 21.4831 35.3771C21.4929 35.6614 21.5005 35.933 21.507 36.1675C21.5176 36.548 21.528 36.921 21.542 37.2698C21.6367 39.6288 21.7972 41.4629 22.2727 42.7461C22.2987 42.8168 22.3339 42.9243 22.371 43.0383C22.6081 43.7647 23.0049 44.9805 24.014 45.9329C25.0591 46.9192 26.3232 47.2218 27.4808 47.2217C28.0614 47.2217 28.6155 47.1456 29.1013 47.0414C30.8334 46.6703 32.8005 46.1047 34.2234 44.0786C35.5687 42.1632 36.2227 39.2783 36.3411 34.7325C36.3564 34.604 36.3706 34.4813 36.3842 34.3643C36.3934 34.2854 36.4028 34.2046 36.4123 34.1241L36.7293 34.152L36.8109 34.1575C38.5751 34.2379 40.7321 33.8638 42.0568 33.2484C43.1037 32.7626 46.458 30.9918 45.6682 28.6007Z" fill="black"/>
<path d="M42.6519 29.0659C37.4066 30.1479 37.046 28.3719 37.046 28.3719C42.5843 20.1542 44.8994 9.7229 42.9015 7.16991C37.451 0.205834 28.0159 3.49939 27.8584 3.5849L27.8077 3.59397C26.7714 3.37885 25.6117 3.25069 24.3082 3.22942C21.9348 3.19053 20.1345 3.85164 18.7683 4.88762C18.7683 4.88762 1.93704 -2.04621 2.71984 13.6082C2.88637 16.9386 7.49318 38.8073 12.988 32.2019C14.9964 29.7865 16.9368 27.7443 16.9368 27.7443C17.9007 28.3846 19.0545 28.7111 20.2641 28.5938L20.358 28.5141C20.3288 28.814 20.3422 29.1073 20.3957 29.4545C18.9801 31.0361 19.3961 31.3138 16.5663 31.8963C13.703 32.4864 15.3851 33.5369 16.4833 33.8115C17.8147 34.1444 20.8949 34.6161 22.9762 31.7026L22.8932 32.035C23.4478 32.4793 23.8373 34.9246 23.772 37.1413C23.7067 39.3581 23.6632 40.8801 24.1002 42.0688C24.5372 43.2575 24.9728 45.9322 28.6927 45.1351C31.8011 44.469 33.4118 42.7428 33.6359 39.8635C33.7949 37.8164 34.1548 38.119 34.1775 36.2889L34.4662 35.4225C34.799 32.6476 34.519 31.7524 36.4341 32.1687L36.8994 32.2096C38.3089 32.2737 40.1537 31.9829 41.2364 31.4797C43.5678 30.3977 44.9505 28.5912 42.6517 29.0659H42.6519Z" fill="#336791"/>
<path d="M19.7534 15.0976C19.2808 15.0318 18.8527 15.0927 18.6361 15.2566C18.5142 15.3489 18.4765 15.4558 18.4664 15.5294C18.4392 15.7243 18.5758 15.9397 18.6596 16.0509C18.897 16.3655 19.2438 16.5818 19.5871 16.6294C19.6368 16.6363 19.6862 16.6396 19.7355 16.6396C20.3079 16.6396 20.8283 16.1939 20.8742 15.865C20.9315 15.453 20.3334 15.1783 19.7534 15.0976Z" fill="white"/>
<path d="M35.4132 15.1105C35.3682 14.7876 34.7933 14.6955 34.248 14.7713C33.7034 14.8472 33.1753 15.093 33.2194 15.4167C33.2548 15.6684 33.7092 16.0981 34.2472 16.098C34.2926 16.098 34.3385 16.095 34.3847 16.0885C34.7438 16.0388 35.0073 15.8108 35.1324 15.6793C35.3231 15.4791 35.4334 15.2557 35.4132 15.1105Z" fill="white"/>
<path d="M44.3969 28.943C44.1969 28.3382 43.5532 28.1435 42.4837 28.3644C39.308 29.0198 38.1708 28.5658 37.7973 28.2908C40.2657 24.5304 42.2963 19.9851 43.3917 15.7441C43.9107 13.7352 44.1973 11.8696 44.2207 10.3491C44.2465 8.67984 43.9624 7.45345 43.376 6.70422C41.0122 3.68376 37.5431 2.06363 33.3435 2.0191C30.4566 1.98667 28.0173 2.72557 27.5444 2.93329C26.5486 2.68563 25.463 2.5336 24.2812 2.5142C22.1139 2.47917 20.2405 2.99804 18.6894 4.05561C18.0157 3.80493 16.2745 3.20722 14.1453 2.86426C10.4639 2.27145 7.53867 2.72057 5.45107 4.19951C2.96012 5.96428 1.81017 9.11884 2.03301 13.5754C2.10798 15.0749 2.96221 19.6873 4.3105 24.1047C6.08517 29.9186 8.01417 33.2099 10.044 33.8869C10.2816 33.9661 10.5556 34.0216 10.8576 34.0216C11.598 34.0216 12.5058 33.6878 13.4503 32.5524C15.0191 30.665 16.4839 29.0834 17.0238 28.5088C17.8217 28.9371 18.6982 29.1762 19.5949 29.2002C19.5964 29.2237 19.5988 29.2471 19.6009 29.2705C19.421 29.4838 19.2735 29.6708 19.1477 29.8305C18.5266 30.619 18.3972 30.7831 16.3977 31.1949C15.8289 31.3122 14.3181 31.6236 14.2961 32.6825C14.272 33.8395 16.0817 34.3254 16.288 34.3769C17.0065 34.5568 17.6987 34.6455 18.3589 34.6455C19.9645 34.6454 21.3774 34.1178 22.5066 33.0968C22.4717 37.2214 22.6438 41.2858 23.139 42.5242C23.5445 43.5379 24.5355 46.0155 27.6655 46.0152C28.1246 46.0152 28.6303 45.9619 29.1864 45.8427C32.4529 45.1422 33.8714 43.6985 34.4202 40.5156C34.7138 38.8146 35.2178 34.7524 35.4547 32.5735C35.9549 32.7295 36.5989 32.801 37.2951 32.8009C38.747 32.8009 40.4223 32.4924 41.473 32.0047C42.6532 31.4566 44.7831 30.1115 44.3969 28.943ZM36.6178 14.2192C36.607 14.8625 36.5184 15.4464 36.4246 16.056C36.3237 16.7116 36.2192 17.3894 36.1929 18.2122C36.1669 19.013 36.2669 19.8455 36.3637 20.6505C36.5591 22.2766 36.7596 23.9507 35.9833 25.6027C35.8626 25.3884 35.7462 25.1546 35.6394 24.8957C35.5429 24.6618 35.3334 24.2861 35.0435 23.7661C33.9148 21.7421 31.2718 17.0023 32.6248 15.0682C33.0277 14.4924 34.0504 13.9006 36.6178 14.2192ZM33.5059 3.32172C37.2686 3.40483 40.245 4.81245 42.3524 7.50527C43.9686 9.57077 42.1889 18.9692 37.0365 27.0772C36.9856 27.0125 36.9338 26.9472 36.8802 26.8803C36.8588 26.8535 36.837 26.8263 36.815 26.7987C38.1464 24.5999 37.886 22.4244 37.6543 20.4955C37.5591 19.7039 37.4692 18.9562 37.4921 18.254C37.5157 17.5095 37.6142 16.8712 37.7093 16.2539C37.8264 15.4931 37.9454 14.7061 37.9125 13.7781C37.937 13.6808 37.9469 13.5658 37.9341 13.4293C37.8503 12.5394 36.8344 9.87651 34.7637 7.46596C33.6311 6.1477 31.9793 4.6723 29.724 3.67719C30.6941 3.47615 32.0207 3.28866 33.5059 3.32172ZM12.4508 31.7213C11.4102 32.9724 10.6916 32.7327 10.4553 32.6539C8.91543 32.1403 7.12887 28.8859 5.55368 23.7252C4.19068 19.2598 3.39412 14.7696 3.33114 13.5104C3.13207 9.52833 4.09736 6.75302 6.20029 5.26167C9.62263 2.83464 15.2494 4.28731 17.5103 5.02413C17.4777 5.05614 17.444 5.08617 17.4117 5.11871C13.7017 8.86566 13.7897 15.2674 13.7988 15.6586C13.7985 15.8096 13.8111 16.0234 13.8285 16.3174C13.8923 17.3941 14.0111 19.3981 13.6938 21.6675C13.3988 23.7764 14.0488 25.8405 15.477 27.3306C15.6249 27.4849 15.7792 27.6297 15.9386 27.766C15.3029 28.4468 13.9213 29.9523 12.4508 31.7213ZM16.4155 26.4313C15.2644 25.2303 14.7416 23.5597 14.9811 21.8475C15.3162 19.4501 15.1924 17.3622 15.126 16.2405C15.1167 16.0835 15.1085 15.946 15.1036 15.8374C15.6456 15.3569 18.1573 14.0111 19.9485 14.4215C20.766 14.6088 21.2639 15.1653 21.471 16.1227C22.5427 21.0793 21.6129 23.1452 20.8658 24.8053C20.7118 25.1473 20.5663 25.4706 20.442 25.8051L20.3458 26.0636C20.102 26.7173 19.8752 27.325 19.7346 27.9022C18.511 27.8984 17.3206 27.3758 16.4155 26.4313ZM16.6033 33.1159C16.246 33.0266 15.9247 32.8716 15.7361 32.743C15.8936 32.6689 16.1739 32.5681 16.6599 32.468C19.0123 31.9837 19.3755 31.6419 20.1688 30.6346C20.3508 30.4038 20.5569 30.1419 20.8424 29.8231L20.8427 29.8226C21.2681 29.3465 21.4625 29.4272 21.8153 29.5735C22.1012 29.6919 22.3797 30.0502 22.4926 30.4445C22.546 30.6308 22.606 30.9844 22.4097 31.2594C20.7524 33.5797 18.3376 33.5499 16.6033 33.1159ZM28.9139 44.5718C26.0362 45.1883 25.0173 43.72 24.3459 42.0415C23.9125 40.9578 23.6996 36.0711 23.8507 30.6747C23.8527 30.6028 23.8424 30.5335 23.8226 30.4683C23.8054 30.3425 23.7789 30.2151 23.7422 30.087C23.5174 29.3018 22.9699 28.6449 22.3129 28.3727C22.0519 28.2645 21.5728 28.0661 20.9971 28.2133C21.1199 27.7075 21.3328 27.1364 21.5636 26.5178L21.6605 26.2575C21.7695 25.9642 21.9062 25.6604 22.051 25.3388C22.8328 23.6017 23.9036 21.2227 22.7415 15.848C22.3061 13.8349 20.8525 12.8519 18.6489 13.0802C17.3277 13.2169 16.1191 13.7499 15.5163 14.0556C15.3867 14.1213 15.2681 14.1847 15.1574 14.2465C15.3256 12.2181 15.9614 8.42759 18.3393 6.02935C19.8364 4.51943 21.8303 3.77375 24.2598 3.8139C29.0465 3.89232 32.1161 6.34885 33.8485 8.39589C35.3412 10.1599 36.1495 11.9368 36.4721 12.8951C34.0462 12.6485 32.3962 13.1274 31.5597 14.3232C29.7401 16.9242 32.5552 21.9728 33.9082 24.3991C34.1563 24.8439 34.3705 25.2281 34.4378 25.3914C34.8784 26.4592 35.4488 27.172 35.8653 27.6925C35.9929 27.8519 36.1168 28.0066 36.2109 28.1416C35.4762 28.3535 34.1564 28.8429 34.2766 31.2893C34.1796 32.5169 33.4897 38.2642 33.1394 40.2948C32.6768 42.9774 31.6896 43.9766 28.9139 44.5718ZM40.9257 30.8258C40.1744 31.1746 38.917 31.4362 37.7225 31.4923C36.4032 31.5541 35.7317 31.3445 35.5737 31.2157C35.4995 29.6911 36.067 29.5318 36.6676 29.3632C36.7619 29.3366 36.854 29.3109 36.9428 29.2798C36.9981 29.3247 37.0586 29.3693 37.1248 29.413C38.1852 30.1129 40.0765 30.1884 42.7465 29.6373C42.7563 29.6353 42.7661 29.6334 42.7758 29.6314C42.4158 29.9681 41.7995 30.42 40.9257 30.8258Z" fill="white"/>
</g>
<defs>
<clipPath id="clip0_585_2319">
<rect width="45.1515" height="46.5625" fill="white" transform="translate(0.691406 0.71875)"/>
</clipPath>
</defs>
</svg>
