<svg width="50" height="50" viewBox="0 0 50 50" fill="none" xmlns="http://www.w3.org/2000/svg">
<path d="M46.6669 19.983H30.9677C30.5893 19.9829 30.2264 19.8325 29.9588 19.5649C29.6912 19.2974 29.5408 18.9345 29.5406 18.5561V2.19446C29.5406 0.982841 28.5581 0 27.347 0H21.7428C20.531 0 19.549 0.982841 19.549 2.19446V18.457C19.549 19.3007 18.8669 19.9865 18.0232 19.9902L12.8784 20.0148C12.0275 20.0194 11.3361 19.329 11.3378 18.4788L11.3697 2.19815C11.3725 0.984686 10.3896 0 9.17617 0H3.57654C2.36455 0 1.38281 0.982841 1.38281 2.19446V48.0092C1.38281 49.0856 2.25477 49.9576 3.33023 49.9576H46.6669C47.7433 49.9576 48.6153 49.0856 48.6153 48.0092V21.9314C48.6153 20.855 47.7433 19.983 46.6669 19.983ZM39.305 37.1847C39.305 38.5952 38.1614 39.7389 36.7509 39.7389H32.3219C30.9112 39.7389 29.7677 38.5952 29.7677 37.1847V32.7557C29.7677 31.345 30.9112 30.2015 32.3219 30.2015H36.7509C38.1614 30.2015 39.305 31.345 39.305 32.7557V37.1847Z" fill="#FF6600"/>
</svg>
