<svg width="51" height="44" viewBox="0 0 51 44" fill="none" xmlns="http://www.w3.org/2000/svg">
<g clip-path="url(#clip0_585_2424)">
<path d="M0.996794 27.6294C0.996794 27.6294 0.908591 32.1928 1.00162 32.8097C1.09465 33.4268 2.04773 34.0249 3.60229 34.6729C6.71167 35.9686 20.8192 41.7942 22.9975 42.7552C25.1758 43.7159 26.4543 43.6095 28.1918 42.8369C29.9291 42.0642 42.8114 36.2601 47.8802 34.0816C49.9874 33.1757 50.8314 32.5246 50.8825 31.9895C50.9547 31.2379 50.8658 27.0552 50.8658 27.0552L0.996928 27.6293L0.996794 27.6294Z" fill="#9D1F08"/>
<path d="M21.9922 18.7492C16.8607 20.7143 7.33064 24.3625 3.56053 25.8076C-0.209573 27.2528 0.492974 28.3503 3.60249 29.6458C6.71187 30.9416 20.8192 36.7672 22.9975 37.7282C25.1758 38.6889 26.4545 38.5824 28.1919 37.8099C29.9293 37.0373 42.8116 31.2331 47.8802 29.0546C52.949 26.8759 50.7072 26.1701 47.7127 25.0117C44.7182 23.8535 33.7671 19.5669 29.4486 17.9533C26.9352 17.0143 27.1237 16.784 21.9922 18.7492Z" fill="#D03017"/>
<path d="M0.996794 19.4191C0.996794 19.4191 0.908591 23.9824 1.00162 24.5994C1.09465 25.2162 2.04773 25.8144 3.60229 26.4626C6.71167 27.7581 20.8192 33.5839 22.9975 34.5446C25.1758 35.5055 26.4543 35.3992 28.1918 34.6264C29.9291 33.8537 42.8114 28.0496 47.8802 25.871C49.9874 24.9652 50.8314 24.314 50.8825 23.7792C50.9547 23.0276 50.8658 18.8447 50.8658 18.8447L0.996794 19.4191Z" fill="#9D1F08"/>
<path d="M21.9922 10.5388C16.8607 12.5039 7.33064 16.1521 3.56053 17.5972C-0.209573 19.0424 0.492974 20.1396 3.60249 21.4354C6.71187 22.7312 20.8192 28.5568 22.9975 29.5178C25.1758 30.4785 26.4545 30.372 28.1919 29.5995C29.9293 28.8269 42.8116 23.0227 47.8802 20.844C52.949 18.6655 50.7072 17.9597 47.7127 16.8014C44.7182 15.6432 33.7671 11.3565 29.4486 9.74295C26.9352 8.80381 27.1237 8.57365 21.9922 10.5388Z" fill="#D03017"/>
<path d="M0.996794 11.0409C0.996794 11.0409 0.908591 15.6042 1.00162 16.2212C1.09465 16.8381 2.04773 17.4364 3.60229 18.0842C6.71167 19.3801 20.8192 25.2057 22.9975 26.1664C25.1758 27.1273 26.4543 27.021 28.1918 26.2482C29.9291 25.4755 42.8114 19.6714 47.8802 17.4928C49.9874 16.5872 50.8314 15.9359 50.8825 15.401C50.9547 14.6494 50.8658 10.4666 50.8658 10.4666L0.996794 11.0409Z" fill="#9D1F08"/>
<path d="M21.9922 2.16078C16.8607 4.12593 7.33064 7.77405 3.56053 9.21923C-0.209573 10.6644 0.492974 11.7616 3.60249 13.0576C6.71187 14.3533 20.8192 20.1789 22.9975 21.1397C25.1758 22.1006 26.4545 21.9942 28.1919 21.2215C29.9293 20.449 42.8116 14.6447 47.8802 12.466C52.949 10.2875 50.7072 9.58169 47.7127 8.42338C44.7182 7.26521 33.7671 2.97848 29.4486 1.3648C26.9352 0.426063 27.1237 0.195634 21.9922 2.16078Z" fill="#D03017"/>
<path d="M21.9073 10.7901C21.9073 12.1089 19.1317 13.1779 15.7075 13.1779C12.2834 13.1779 9.50781 12.1087 9.50781 10.7901C9.50781 9.47133 12.2834 8.4023 15.7075 8.4023C19.1317 8.4023 21.9073 9.47147 21.9073 10.7901ZM18.8494 15.1048L26.8503 18.4141L30.4948 13.1778L18.8494 15.1048ZM24.2951 5.42817L20.5668 6.81061L25.5518 7.18755L27.1436 9.91048L28.149 7.48072L32.4218 7.06195L29.0705 5.80511L30.034 3.62683L26.7246 4.71597L23.2058 3.37549L24.2949 5.42817H24.2951Z" fill="white"/>
<path d="M37.5215 13.2211L44.4453 10.4969L37.5334 7.81592" fill="#751200"/>
<path d="M37.5326 7.81616L30.0762 10.7903L36.7786 13.5132L37.5207 13.2213" fill="#9D1F08"/>
</g>
<defs>
<clipPath id="clip0_585_2424">
<rect width="50" height="42.8954" fill="white" transform="translate(0.962891 0.552246)"/>
</clipPath>
</defs>
</svg>
