<svg width="50" height="50" viewBox="0 0 50 50" fill="none" xmlns="http://www.w3.org/2000/svg">
<g clip-path="url(#clip0_419_342)">
<path d="M0 0H50V50H0" fill="#443FD4"/>
<path d="M28.7498 27.2499H22.2498V45.7499H17.7498V27.2499H10.9998C10.9562 25.8842 10.9998 24.7645 11.0013 23.2204L28.7504 23.2501L28.7498 27.2499ZM41.1248 23.4764C42.5787 24.0325 44.0318 25.7721 44.4998 26.3495C44.1201 26.6889 41.6935 28.5208 41.3412 28.7911C41.1603 28.6665 40.733 28.3079 40.1746 27.8745C39.3927 27.2676 39.0998 26.9995 38.2996 26.9995C36.3994 26.9995 35.3496 28.6995 36.3494 30.1495C36.5494 30.4247 38.2244 31.3995 40.0744 32.3247C44.8496 34.6747 45.9996 36.0995 45.9996 39.6499C45.9746 42.2249 44.6746 44.1249 42.1246 45.2997C41.2095 45.6292 40.4496 45.8747 38.3746 45.8497C35.4496 45.8497 33.3496 44.9999 32.0496 43.8747C30.8484 42.7079 30.1445 41.3645 30.0246 41.1497C30.2216 41.0229 30.9244 40.5999 31.8746 40.0497L33.6197 39.01L34.4496 39.9749C36.5996 42.5747 41.2496 42.2249 41.2496 39.4749C41.2496 38.2997 40.2246 37.3995 37.7996 36.3995C36.8746 36.0245 35.5246 35.3497 34.7996 34.9247C30.0496 32.0995 30.1746 25.6997 34.9996 23.5243C36.4246 22.8743 39.1457 22.6059 41.1246 23.4762L41.1248 23.4764Z" fill="white"/>
</g>
<defs>
<clipPath id="clip0_419_342">
<rect width="50" height="50" fill="white"/>
</clipPath>
</defs>
</svg>
