<svg width="32" height="32" viewBox="0 0 32 32" fill="none" xmlns="http://www.w3.org/2000/svg">
<rect width="32" height="32" rx="16" fill="#0F0F0F"/>
<path d="M21.8981 17.9037L18.9538 16.5844L18.9456 16.5806C18.7928 16.5152 18.626 16.489 18.4605 16.5043C18.2949 16.5196 18.1358 16.5759 17.9975 16.6681C17.9812 16.6789 17.9656 16.6906 17.9506 16.7031L16.4294 18C15.4656 17.5319 14.4706 16.5444 14.0025 15.5931L15.3013 14.0487C15.3138 14.0331 15.3256 14.0175 15.3369 14.0006C15.4271 13.8627 15.4819 13.7046 15.4963 13.5404C15.5107 13.3761 15.4843 13.2109 15.4194 13.0594V13.0519L14.0963 10.1025C14.0105 9.90454 13.863 9.73963 13.6757 9.63239C13.4885 9.52516 13.2717 9.48135 13.0575 9.5075C12.2106 9.61894 11.4332 10.0349 10.8706 10.6776C10.3079 11.3203 9.99847 12.1458 10 13C10 17.9625 14.0375 22 19 22C19.8542 22.0015 20.6797 21.6921 21.3224 21.1294C21.9651 20.5668 22.3811 19.7894 22.4925 18.9425C22.5187 18.7284 22.475 18.5116 22.3679 18.3244C22.2607 18.1372 22.096 17.9896 21.8981 17.9037ZM19 21C16.879 20.9977 14.8455 20.1541 13.3457 18.6543C11.8459 17.1545 11.0023 15.121 11 13C10.9977 12.3897 11.2175 11.7994 11.6186 11.3393C12.0196 10.8793 12.5744 10.5809 13.1794 10.5C13.1791 10.5025 13.1791 10.505 13.1794 10.5075L14.4919 13.445L13.2 14.9912C13.1869 15.0063 13.175 15.0224 13.1644 15.0394C13.0703 15.1837 13.0152 15.3499 13.0042 15.5218C12.9933 15.6937 13.0269 15.8655 13.1019 16.0206C13.6681 17.1787 14.835 18.3369 16.0056 18.9025C16.1619 18.9768 16.3347 19.0093 16.5072 18.9968C16.6798 18.9843 16.8461 18.9272 16.99 18.8312C17.0061 18.8204 17.0215 18.8088 17.0363 18.7962L18.5556 17.5L21.4931 18.8156C21.4931 18.8156 21.4981 18.8156 21.5 18.8156C21.4201 19.4214 21.1222 19.9773 20.662 20.3794C20.2019 20.7814 19.611 21.0021 19 21Z" fill="white"/>
</svg>
