<svg width="33" height="32" viewBox="0 0 33 32" fill="none" xmlns="http://www.w3.org/2000/svg">
<rect x="0.5" width="32" height="32" rx="16" fill="url(#paint0_linear_485_922)"/>
<path fill-rule="evenodd" clip-rule="evenodd" d="M7.74138 15.8312C12.4057 13.799 15.516 12.4593 17.0722 11.812C21.5156 9.96384 22.4389 9.64279 23.0407 9.63219C23.173 9.62986 23.469 9.66266 23.6607 9.81821C23.8226 9.94956 23.8671 10.127 23.8884 10.2515C23.9097 10.376 23.9363 10.6597 23.9152 10.8814C23.6744 13.4114 22.6325 19.5509 22.1024 22.3846C21.8781 23.5836 21.4365 23.9856 21.009 24.0249C20.0798 24.1104 19.3743 23.4109 18.4743 22.821C17.0661 21.8979 16.2706 21.3232 14.9037 20.4225C13.324 19.3815 14.348 18.8093 15.2483 17.8743C15.4839 17.6296 19.5778 13.9059 19.657 13.5681C19.6669 13.5258 19.6761 13.3684 19.5826 13.2852C19.489 13.2021 19.3509 13.2305 19.2513 13.2531C19.11 13.2852 16.8604 14.7721 12.5024 17.7139C11.8638 18.1523 11.2855 18.366 10.7672 18.3548C10.196 18.3424 9.09704 18.0318 8.28011 17.7662C7.27811 17.4405 6.48174 17.2683 6.55108 16.7152C6.5872 16.427 6.98397 16.1324 7.74138 15.8312Z" fill="white"/>
<defs>
<linearGradient id="paint0_linear_485_922" x1="16.5" y1="0" x2="16.5" y2="31.7627" gradientUnits="userSpaceOnUse">
<stop stop-color="#2AABEE"/>
<stop offset="1" stop-color="#229ED9"/>
</linearGradient>
</defs>
</svg>
