<svg width="32" height="32" viewBox="0 0 32 32" fill="none" xmlns="http://www.w3.org/2000/svg">
<rect width="32" height="32" rx="16" fill="#7360F2"/>
<g clip-path="url(#clip0_526_899)">
<path d="M16.6268 17.309C16.6268 17.309 16.9268 17.336 17.0883 17.1237L17.4032 16.701C17.5551 16.4914 17.9217 16.3577 18.2807 16.5711C18.5498 16.7348 18.8109 16.9128 19.0633 17.1043C19.2548 17.2546 19.6078 17.5649 19.7395 17.6807C19.7436 17.6842 19.7474 17.6875 19.7509 17.6907C19.7761 17.7128 19.7906 17.7255 19.7909 17.7255C20.0233 17.9348 20.077 18.2422 19.9187 18.5663C19.9187 18.5673 19.9184 18.5687 19.9181 18.5699C19.9178 18.5711 19.9175 18.5723 19.9175 18.5731C19.7432 18.8954 19.5219 19.186 19.262 19.4341C19.2617 19.4343 19.2615 19.4345 19.2612 19.4346C19.2605 19.4351 19.26 19.4355 19.2595 19.436L19.2589 19.4367C19.2582 19.4375 19.2575 19.4382 19.2562 19.439C19.0304 19.6403 18.8085 19.7547 18.5906 19.7823C18.5585 19.7883 18.5259 19.7905 18.4934 19.7888C18.3973 19.7898 18.3017 19.7741 18.2103 19.7423L18.2033 19.7312C17.8676 19.6302 17.307 19.3774 16.3736 18.828C15.8334 18.5139 15.3192 18.1515 14.8364 17.7447C14.5944 17.5409 14.3635 17.3225 14.145 17.0905L14.0984 17.0408L14.0751 17.0157C14.0699 17.0103 14.0648 17.0048 14.0596 16.9993L14.0518 16.9909C13.8344 16.7577 13.6296 16.5114 13.4386 16.2532C13.0574 15.7382 12.7177 15.1896 12.4232 14.6135C11.9082 13.6174 11.6713 13.0199 11.5766 12.6612L11.5662 12.6537C11.5365 12.5562 11.5219 12.4542 11.5229 12.3517C11.5211 12.317 11.5231 12.2822 11.5287 12.248C11.5559 12.016 11.6633 11.7793 11.851 11.5376C11.8511 11.5374 11.8513 11.5371 11.8514 11.5369C11.852 11.5359 11.8526 11.5353 11.8532 11.5347C11.854 11.5339 11.8548 11.5331 11.8556 11.5314C12.088 11.2541 12.3605 11.0181 12.6627 10.8324L12.6633 10.8323L12.6641 10.8321L12.6656 10.8316C12.6661 10.8315 12.6667 10.8313 12.6672 10.8311C12.6679 10.8309 12.6685 10.8308 12.669 10.8308C12.9728 10.662 13.2609 10.7192 13.4569 10.9658C13.4584 10.9674 13.8647 11.4879 14.0391 11.7421C14.2187 12.0116 14.3855 12.2905 14.5389 12.5778C14.7389 12.9605 14.6136 13.3524 14.4171 13.5139L14.0209 13.8499C13.8209 14.0222 13.8472 14.3423 13.8472 14.3423C13.8472 14.3423 14.4341 16.7118 16.6268 17.309Z" fill="white"/>
<path d="M16.5948 12.625C16.4771 12.6184 16.3767 12.7149 16.3706 12.8405C16.3644 12.9661 16.4549 13.0732 16.5726 13.0797C16.941 13.1002 17.1916 13.215 17.3558 13.3961C17.521 13.5784 17.6269 13.8587 17.646 14.2706C17.6519 14.3961 17.752 14.4929 17.8697 14.4867C17.9875 14.4804 18.0782 14.3736 18.0723 14.248C18.05 13.7669 17.9225 13.3663 17.6626 13.0795C17.4016 12.7917 17.0352 12.6495 16.5948 12.625Z" fill="white"/>
<path d="M16.0468 11.6138C16.0555 11.4884 16.1577 11.3942 16.2753 11.4033C17.1715 11.4733 17.8929 11.8 18.4184 12.412C18.9381 13.0179 19.1852 13.7717 19.1673 14.6558C19.1647 14.7815 19.0671 14.8813 18.9493 14.8785C18.8315 14.8758 18.738 14.7717 18.7406 14.646C18.7564 13.8663 18.5415 13.23 18.1036 12.7195C17.667 12.2111 17.0567 11.9209 16.2441 11.8575C16.1266 11.8483 16.0382 11.7392 16.0468 11.6138Z" fill="white"/>
<path d="M15.8859 10.2217C15.768 10.2208 15.6718 10.322 15.671 10.4478C15.6701 10.5735 15.765 10.6762 15.8829 10.677C17.0191 10.6855 17.9578 11.0847 18.7139 11.871C19.463 12.6501 19.8525 13.7238 19.8624 15.1205C19.8633 15.2463 19.9596 15.3474 20.0775 15.3465C20.1953 15.3455 20.2901 15.2428 20.2893 15.117C20.2786 13.6266 19.8595 12.4265 19.0119 11.545C18.1713 10.6708 17.1244 10.2309 15.8859 10.2217Z" fill="white"/>
<path fill-rule="evenodd" clip-rule="evenodd" d="M22.1939 8.75558C21.7747 8.34287 20.0805 7.03075 16.3067 7.01292C16.3067 7.01292 11.8565 6.72662 9.68715 8.84957C8.47953 10.1382 8.05472 12.0237 8.0099 14.3614C7.96509 16.6991 7.90712 21.0801 11.8654 22.2679H11.8692L11.8667 24.0805C11.8667 24.0805 11.8414 24.8144 12.2943 24.964C12.7515 25.1155 13.0511 24.7521 13.4417 24.2782C13.5192 24.1843 13.6002 24.086 13.6867 23.9866C13.9738 23.6565 14.3703 23.1717 14.669 22.8011C17.3761 23.0442 19.4582 22.4886 19.6946 22.4065C19.7435 22.3896 19.8126 22.3709 19.8984 22.3476C20.773 22.1104 23.3791 21.4035 23.8372 17.414C24.3565 12.8988 23.5861 10.0429 22.1939 8.75558ZM22.6527 17.0902C22.2704 20.3836 20.1985 20.8979 19.4519 21.0832C19.3694 21.1037 19.303 21.1202 19.2569 21.136C19.0602 21.2035 17.2316 21.6888 14.932 21.5287C14.932 21.5287 13.2186 23.734 12.6834 24.3074C12.5999 24.3971 12.5016 24.4333 12.436 24.4155C12.3439 24.3914 12.3186 24.275 12.3196 24.1049C12.3211 23.8618 12.3343 21.0927 12.3343 21.0927C9.09652 20.1337 9.17203 16.6157 9.21489 14.619C9.21636 14.5507 9.21778 14.4843 9.21904 14.4198C9.25701 12.4672 9.60082 10.8677 10.6221 9.79194C12.4571 8.01876 16.2371 8.28372 16.2371 8.28372C19.4293 8.29858 20.959 9.32413 21.3137 9.66769C22.4914 10.7435 23.0914 13.3178 22.6527 17.0891V17.0902Z" fill="white"/>
</g>
<defs>
<clipPath id="clip0_526_899">
<rect width="16" height="18" fill="white" transform="translate(8 7)"/>
</clipPath>
</defs>
</svg>
