<svg width="33" height="32" viewBox="0 0 33 32" fill="none" xmlns="http://www.w3.org/2000/svg">
<rect x="0.5" width="32" height="32" rx="16" fill="url(#paint0_linear_485_916)"/>
<path d="M6.79297 25.3087L8.16488 20.3268C7.31671 18.8646 6.87176 17.2086 6.8764 15.5157C6.8764 10.2109 11.2146 5.89795 16.54 5.89795C19.1263 5.89795 21.5549 6.89893 23.3764 8.71638C25.2025 10.5338 26.2083 12.9509 26.2037 15.5203C26.2037 20.825 21.8655 25.138 16.5354 25.138H16.5308C14.9132 25.138 13.3235 24.7321 11.9098 23.9663L6.79297 25.3087ZM12.1555 22.2273L12.4475 22.4026C13.6803 23.1314 15.094 23.5143 16.5354 23.5189H16.54C20.9663 23.5189 24.5722 19.9347 24.5722 15.5249C24.5722 13.3892 23.7379 11.3826 22.2223 9.86958C20.7067 8.35658 18.686 7.52627 16.54 7.52627C12.1138 7.52166 8.50786 11.1058 8.50786 15.5157C8.50786 17.0241 8.92963 18.4955 9.73609 19.7687L9.92612 20.0731L9.11502 23.0207L12.1555 22.2273Z" fill="white"/>
<path d="M7.13281 24.972L8.45838 20.1608C7.63801 18.7539 7.20697 17.1533 7.20697 15.5203C7.2116 10.4001 11.3969 6.23474 16.5415 6.23474C19.0397 6.23474 21.3803 7.20343 23.1415 8.9563C24.9028 10.7092 25.8715 13.0433 25.8715 15.5249C25.8715 20.6452 21.6816 24.8105 16.5415 24.8105H16.5369C14.975 24.8105 13.4408 24.4184 12.0782 23.6804L7.13281 24.972Z" fill="url(#paint1_linear_485_916)"/>
<path d="M6.79297 25.3087L8.16488 20.3268C7.31671 18.8646 6.87176 17.2086 6.8764 15.5157C6.8764 10.2109 11.2146 5.89795 16.54 5.89795C19.1263 5.89795 21.5549 6.89893 23.3764 8.71638C25.2025 10.5338 26.2083 12.9509 26.2037 15.5203C26.2037 20.825 21.8655 25.138 16.5354 25.138H16.5308C14.9132 25.138 13.3235 24.7321 11.9098 23.9663L6.79297 25.3087ZM12.1555 22.2273L12.4475 22.4026C13.6803 23.1314 15.094 23.5143 16.5354 23.5189H16.54C20.9663 23.5189 24.5722 19.9347 24.5722 15.5249C24.5722 13.3892 23.7379 11.3826 22.2223 9.86958C20.7067 8.35658 18.686 7.52627 16.54 7.52627C12.1138 7.52166 8.50786 11.1058 8.50786 15.5157C8.50786 17.0241 8.92963 18.4955 9.73609 19.7687L9.92612 20.0731L9.11502 23.0207L12.1555 22.2273Z" fill="url(#paint2_linear_485_916)"/>
<path fill-rule="evenodd" clip-rule="evenodd" d="M14.1264 11.4933C13.9456 11.0919 13.7556 11.0827 13.5841 11.0781C13.445 11.0735 13.2828 11.0735 13.1206 11.0735C12.9584 11.0735 12.6988 11.1335 12.4764 11.3733C12.2539 11.6132 11.6328 12.1944 11.6328 13.3799C11.6328 14.5608 12.4995 15.7047 12.62 15.8662C12.7405 16.0276 14.2932 18.5324 16.745 19.4965C18.7844 20.2991 19.2015 20.1377 19.6418 20.0961C20.0821 20.0546 21.0693 19.5149 21.2733 18.9522C21.4726 18.3894 21.4726 17.9097 21.4123 17.8082C21.3521 17.7067 21.1898 17.6467 20.9488 17.5268C20.7078 17.4069 19.5213 16.8257 19.2988 16.7426C19.0764 16.6642 18.9141 16.6227 18.7566 16.8626C18.5943 17.1024 18.1309 17.6421 17.9918 17.8036C17.8528 17.965 17.7091 17.9835 17.4681 17.8635C17.2271 17.7436 16.4484 17.4899 15.5261 16.6688C14.8077 16.0323 14.321 15.2435 14.182 15.0036C14.0429 14.7637 14.1681 14.6346 14.2886 14.5146C14.3952 14.4085 14.5296 14.2333 14.6501 14.0949C14.7706 13.9565 14.8123 13.855 14.8911 13.6936C14.9699 13.5321 14.9328 13.3937 14.8726 13.2738C14.8123 13.1585 14.3396 11.9684 14.1264 11.4933Z" fill="white"/>
<defs>
<linearGradient id="paint0_linear_485_916" x1="16.4992" y1="31.9984" x2="16.4992" y2="-0.0011196" gradientUnits="userSpaceOnUse">
<stop stop-color="#20B038"/>
<stop offset="1" stop-color="#60D66A"/>
</linearGradient>
<linearGradient id="paint1_linear_485_916" x1="16.5016" y1="24.9711" x2="16.5016" y2="6.23409" gradientUnits="userSpaceOnUse">
<stop stop-color="#20B038"/>
<stop offset="1" stop-color="#60D66A"/>
</linearGradient>
<linearGradient id="paint2_linear_485_916" x1="16.5002" y1="25.3068" x2="16.5002" y2="5.89795" gradientUnits="userSpaceOnUse">
<stop stop-color="#F9F9F9"/>
<stop offset="1" stop-color="white"/>
</linearGradient>
</defs>
</svg>
